<?xml version="1.0" encoding="UTF-8" standalone="no"?>
<!-- Created with Inkscape (http://www.inkscape.org/) -->

<svg
   xmlns:dc="http://purl.org/dc/elements/1.1/"
   xmlns:cc="http://creativecommons.org/ns#"
   xmlns:rdf="http://www.w3.org/1999/02/22-rdf-syntax-ns#"
   xmlns:svg="http://www.w3.org/2000/svg"
   xmlns="http://www.w3.org/2000/svg"
   xmlns:sodipodi="http://sodipodi.sourceforge.net/DTD/sodipodi-0.dtd"
   xmlns:inkscape="http://www.inkscape.org/namespaces/inkscape"
   width="210mm"
   height="297mm"
   viewBox="0 0 210 297"
   version="1.1"
   id="svg8"
   inkscape:version="0.92.0 r15299"
   sodipodi:docname="inkscape_doughnut.svg">
  <defs
     id="defs2" />
  <sodipodi:namedview
     id="base"
     pagecolor="#ffffff"
     bordercolor="#666666"
     borderopacity="1.0"
     inkscape:pageopacity="0.0"
     inkscape:pageshadow="2"
     inkscape:zoom="0.35"
     inkscape:cx="-77.142857"
     inkscape:cy="217.14286"
     inkscape:document-units="mm"
     inkscape:current-layer="layer1"
     showgrid="false"
     inkscape:window-width="1920"
     inkscape:window-height="1001"
     inkscape:window-x="-9"
     inkscape:window-y="-9"
     inkscape:window-maximized="1" />
  <metadata
     id="metadata5">
    <rdf:RDF>
      <cc:Work
         rdf:about="">
        <dc:format>image/svg+xml</dc:format>
        <dc:type
           rdf:resource="http://purl.org/dc/dcmitype/StillImage" />
        <dc:title></dc:title>
      </cc:Work>
    </rdf:RDF>
  </metadata>
  <g
     inkscape:label="Layer 1"
     inkscape:groupmode="layer"
     id="layer1">
    <g
       id="layer1-8"
       inkscape:label="Layer 1"
       transform="matrix(0.29342902,0,0,0.29342902,56.613874,156.72881)">
      <path
         id="path4635"
         transform="scale(0.26458333)"
         d="M 614.88281,-1140.2441 A 944.88188,944.88188 0 0 0 -330,-195.36133 a 944.88188,944.88188 0 0 0 944.88281,944.88086 944.88188,944.88188 0 0 0 944.88089,-944.88086 944.88188,944.88188 0 0 0 -130.666,-477.46094 107.37542,107.37542 0 0 1 -92.4395,-24.84765 107.37542,107.37542 0 0 1 -34.9453,-95.74219 173.30769,173.30769 0 0 1 -197.6309,-22.47266 173.30769,173.30769 0 0 1 -44.2422,-197.42183 107.37542,107.37542 0 0 1 -103.63277,-21.9297 107.37542,107.37542 0 0 1 -32.24023,-51.8575 944.88188,944.88188 0 0 0 -309.08399,-53.1503 z m 0,614.17379 A 330.70866,330.70866 0 0 1 945.58984,-195.36133 330.70866,330.70866 0 0 1 614.88281,135.3457 330.70866,330.70866 0 0 1 284.17383,-195.36133 330.70866,330.70866 0 0 1 614.88281,-526.07031 Z"
         style="opacity:1;fill:#ffb380;fill-opacity:1;stroke-width:1.56631899;stroke-miterlimit:4;stroke-dasharray:none"
         inkscape:connector-curvature="0" />
      <path
         id="path4666"
         transform="scale(0.26458333)"
         d="m 611.64844,-1186.6055 c -2.52225,0 -5.04427,0 -7.56641,0.018 -330.40979,2.0789 -654.224946,181.589 -827.92383,463.24415 -107.59466,172.42416 -162.67196,378.57194 -150.75976,581.67773 3.42861,42.828783 40.57514,76.786934 83.02344,78.904301 43.47281,8.787481 88.20223,-16.695682 104.80859,-57.437501 38.67623,-79.16764 30.7447,-175.57672 82.45508,-249.03516 28.038146,-37.41475 82.331571,-34.11816 121.609372,-20.23437 49.100417,20.41031 57.080615,81.85241 59.027344,128.12109 5.564186,64.43112 -8.013493,136.15153 27.187504,194.291019 34.83405,51.69945 112.65944,48.646502 160.03906,16.91211 53.98487,-36.460173 70.84227,-105.805459 68.48047,-167.458989 6.52972,-145.02975 143.43462,-266.69156 287.74023,-261.77734 149.33696,-0.14211 285.72612,136.39272 279.11524,287.4082 2.59555,79.30043 -11.07261,165.321976 27.24023,238.457035 34.53388,63.192075 125.1741,67.399915 180.1621,30.072266 66.0586,-46.553181 78.3114,-133.60073 91.1231,-207.369141 9.9456,-44.22483 8.6521,-95.21565 38.1562,-132.30078 25.7067,-15.6672 57.6041,7.4397 72.3281,28.7168 57.6724,80.82936 59.8354,188.43768 116.375,270.236324 25.4239,37.188397 79.1293,37.238425 113.7168,13.486328 54.0202,-38.193591 61.6663,-111.182293 66.0762,-171.998052 8.7507,-193.84939 -32.9316,-391.73548 -127.2422,-561.92382 -1.08,-1.92411 -2.1682,-3.84379 -3.2617,-5.75977 a 107.37542,118.68191 41.582107 0 1 -156.5176,14.79297 107.37542,118.68191 41.582107 0 1 -31.5605,-99.55664 173.30769,191.55677 41.582107 0 1 -205.6231,-13.46484 173.30769,191.55677 41.582107 0 1 -35.9726,-206.74024 107.37542,118.68191 41.582107 0 1 -107.293,-17.80468 107.37542,118.68191 41.582107 0 1 -22.67383,-127.2949 c -61.37025,-19.5687 -124.70613,-33.0313 -189.01172,-39.6895 -37.58701,-4.3233 -75.42407,-6.4443 -113.25781,-6.4922 z"
         style="color:#000000;font-style:normal;font-variant:normal;font-weight:normal;font-stretch:normal;font-size:medium;line-height:normal;font-family:sans-serif;font-variant-ligatures:normal;font-variant-position:normal;font-variant-caps:normal;font-variant-numeric:normal;font-variant-alternates:normal;font-feature-settings:normal;text-indent:0;text-align:start;text-decoration:none;text-decoration-line:none;text-decoration-style:solid;text-decoration-color:#000000;letter-spacing:normal;word-spacing:normal;text-transform:none;writing-mode:lr-tb;direction:ltr;text-orientation:mixed;dominant-baseline:auto;baseline-shift:baseline;text-anchor:start;white-space:normal;shape-padding:0;clip-rule:nonzero;display:inline;overflow:visible;visibility:visible;opacity:1;isolation:auto;mix-blend-mode:normal;color-interpolation:sRGB;color-interpolation-filters:linearRGB;solid-color:#000000;solid-opacity:1;vector-effect:none;fill:#532302;fill-opacity:1;fill-rule:nonzero;stroke:none;stroke-width:24.99999619;stroke-linecap:round;stroke-linejoin:round;stroke-miterlimit:4;stroke-dasharray:none;stroke-dashoffset:0;stroke-opacity:1;color-rendering:auto;image-rendering:auto;shape-rendering:auto;text-rendering:auto;enable-background:accumulate"
         inkscape:connector-curvature="0" />
      <path
         id="path4653"
         transform="scale(0.26458333)"
         d="m 610.83789,-1164.5488 c -4.4398,10e-4 -8.87891,0.03 -13.31836,0.092 -283.26009,4.6539 -561.430924,139.9768 -737.91015,361.97458 -137.05888,169.85978 -212.78029,387.18459 -213.90235,605.00195 -0.0555,46.03844 -8.0594,113.697267 82.75195,113.697267 134.7638,0 54.30813,-337.035157 231.787114,-337.035157 252.879446,0 42.9714846,371.402344 225.874996,371.402344 85.18893,0 123.42161,-75.868014 123.16797,-148.064454 0.0246,-63.2661 18.98678,-126.2845 57.94727,-177.30078 55.90378,-75.89007 147.43305,-126.3136 242.40429,-126.48633 153.43718,-5.65436 297.38095,121.20657 309.82618,274.37696 1.06729,9.77261 1.59551,40.80392 1.62695,50.62304 0,109.964919 -13.1811,254.33008 103.50195,254.33008 205.431,0 109.5982,-372.84025 227.707,-368.46094 140.7051,5.21716 131.5355,334.193362 227.7051,334.193362 84.4877,0 103.502,-97.81684 103.502,-220.062502 -0.5743,-165.81658 -43.0625,-351.80913 -125.6387,-496.88867 a 107.37542,128.74834 41.582107 0 1 -158.293,17.27734 107.37542,128.74834 41.582107 0 1 -28.5488,-102.95312 173.30769,207.80433 41.582107 0 1 -212.7383,-5.44531 173.30769,207.80433 41.582107 0 1 -28.6133,-215.03711 107.37542,128.74834 41.582107 0 1 -110.55075,-14.13282 107.37542,128.74834 41.582107 0 1 -20.01367,-128.33983 c -29.52062,-9.0199 -59.504,-16.5916 -89.85156,-22.5977 -65.23423,-13.4038 -131.82678,-20.1789 -198.42383,-20.164 z"
         style="opacity:1;fill:#784421;fill-opacity:1;stroke-width:1.56631899;stroke-miterlimit:4;stroke-dasharray:none"
         inkscape:connector-curvature="0" />
      <path
         id="path4669"
         transform="scale(0.26458333)"
         d="m -35.242188,-399.12891 c -17.396501,-0.12086 -34.525999,3.22305 -48.953124,11.80664 -2.125114,8.11386 -4.099737,16.27636 -5.900391,24.48829 -74.588787,306.493114 76.609936,657.88911 359.166013,803.6582 240.92343,130.36909 559.05744,114.53855 777.71879,-55.03906 175.3695,-130.56294 286.165,-344.389624 293.0214,-561.71485 -8.6464,-20.45343 -18.8478,-40.15142 -31.916,-58.46679 -14.724,-21.2771 -46.6214,-44.384 -72.3281,-28.7168 -29.5041,37.08513 -28.2106,88.07595 -38.1562,132.30078 -12.8117,73.768411 -25.0645,160.81596 -91.1231,207.369141 -5.7602,3.910198 -11.9163,7.35934 -18.3535,10.33789 C 992.38746,242.36105 822.53901,353.94201 637.80273,357.74023 371.0769,370.97906 109.98117,164.44864 69.384766,-101.01367 c -11.841219,-66.02582 -10.014721,-133.63328 3.496093,-198.99024 -5.564158,-37.1089 -19.406607,-74.42563 -55.585937,-89.46484 -15.9566066,-5.64029 -34.391293,-9.53409 -52.53711,-9.66016 z"
         style="opacity:0.50883394;fill:#ffffff;fill-opacity:1;stroke-width:1.56631899;stroke-miterlimit:4;stroke-dasharray:none"
         inkscape:connector-curvature="0" />
      <path
         id="path4731"
         transform="scale(0.26458333)"
         d="m 616.76172,-918.99023 c -2.72102,0.006 -5.44209,0.0303 -8.16211,0.0703 -293.53909,-2.01247 -576.534081,201.94779 -675.671876,476.52148 54.92985,-11.15412 118.409511,4.51634 153.314454,49.74024 3.259898,4.51083 6.232308,9.11816 8.957031,13.80664 55.264601,-152.72962 174.763901,-282.89465 330.242191,-335.48633 64.27842,-23.05546 132.64793,-34.31216 200.89648,-34.08984 277.78646,0.20506 527.68471,244.83273 541.70511,520.16406 8.9069,-33.69435 24.0633,-68.12261 57.1953,-81.96094 40.3438,-14.29142 82.5934,5.21952 110.4179,35.75391 -3.118,-26.50473 -7.8765,-52.88235 -14.3593,-78.98438 -30.1521,-132.18116 -98.8749,-255.72285 -194.086,-352.49219 a 173.30769,223.34547 41.582107 0 1 -89.5488,-35.08007 173.30769,223.34547 41.582107 0 1 -42.41991,-70.63282 c -40.85828,-25.28767 -84.4086,-46.26751 -130.12891,-62.10546 -79.26346,-29.47529 -163.99998,-45.42184 -248.35156,-45.22461 z"
         style="opacity:0.50883394;fill:#ffffff;fill-opacity:1;stroke-width:1.56631899;stroke-miterlimit:4;stroke-dasharray:none"
         inkscape:connector-curvature="0" />
      <rect
         style="opacity:1;fill:#0000ff;fill-opacity:1;stroke:none;stroke-width:1.27744484;stroke-linecap:round;stroke-linejoin:round;stroke-miterlimit:4;stroke-dasharray:none;stroke-opacity:1"
         id="rect4830"
         width="47.623142"
         height="14.716166"
         x="142.87332"
         y="-85.582779"
         ry="7.3580823"
         transform="rotate(-52.007232)" />
      <rect
         style="opacity:1;fill:#008000;fill-opacity:1;stroke:none;stroke-width:1.27744484;stroke-linecap:round;stroke-linejoin:round;stroke-miterlimit:4;stroke-dasharray:none;stroke-opacity:1"
         id="rect4832"
         width="47.623142"
         height="14.716166"
         x="112.50817"
         y="-194.8159"
         ry="7.3580823"
         transform="rotate(-30.864085)" />
      <rect
         style="opacity:1;fill:#008000;fill-opacity:1;stroke:none;stroke-width:1.27744484;stroke-linecap:round;stroke-linejoin:round;stroke-miterlimit:4;stroke-dasharray:none;stroke-opacity:1"
         id="rect4834"
         width="47.623142"
         height="14.716166"
         x="97.273705"
         y="-83.709595"
         ry="7.3580823"
         transform="rotate(-30.864085)" />
      <rect
         style="opacity:1;fill:#008000;fill-opacity:1;stroke:none;stroke-width:1.27744484;stroke-linecap:round;stroke-linejoin:round;stroke-miterlimit:4;stroke-dasharray:none;stroke-opacity:1"
         id="rect4836"
         width="47.623142"
         height="14.716166"
         x="267.49197"
         y="-153.97508"
         ry="7.3580823"
         transform="rotate(-30.864085)" />
      <rect
         transform="rotate(-30.864085)"
         ry="7.3580823"
         y="-54.59824"
         x="213.03249"
         height="14.716166"
         width="47.623142"
         id="rect4860"
         style="opacity:1;fill:#0000ff;fill-opacity:1;stroke:none;stroke-width:1.27744484;stroke-linecap:round;stroke-linejoin:round;stroke-miterlimit:4;stroke-dasharray:none;stroke-opacity:1" />
      <rect
         transform="rotate(-30.864085)"
         ry="7.3580823"
         y="2.0355341"
         x="262.40906"
         height="14.716166"
         width="47.623142"
         id="rect4862"
         style="opacity:1;fill:#008000;fill-opacity:1;stroke:none;stroke-width:1.27744484;stroke-linecap:round;stroke-linejoin:round;stroke-miterlimit:4;stroke-dasharray:none;stroke-opacity:1" />
      <rect
         style="opacity:1;fill:#008000;fill-opacity:1;stroke:none;stroke-width:1.27744484;stroke-linecap:round;stroke-linejoin:round;stroke-miterlimit:4;stroke-dasharray:none;stroke-opacity:1"
         id="rect4838"
         width="47.623142"
         height="14.716166"
         x="262.40906"
         y="2.0355341"
         ry="7.3580823"
         transform="rotate(-30.864085)" />
      <rect
         style="opacity:1;fill:#0000ff;fill-opacity:1;stroke:none;stroke-width:1.27744484;stroke-linecap:round;stroke-linejoin:round;stroke-miterlimit:4;stroke-dasharray:none;stroke-opacity:1"
         id="rect4840"
         width="47.623142"
         height="14.716166"
         x="244.98676"
         y="107.51905"
         ry="7.3580823"
         transform="rotate(-30.864085)" />
      <rect
         style="opacity:1;fill:#ffff00;fill-opacity:1;stroke:none;stroke-width:1.27744484;stroke-linecap:round;stroke-linejoin:round;stroke-miterlimit:4;stroke-dasharray:none;stroke-opacity:1"
         id="rect4842"
         width="47.623142"
         height="14.716166"
         x="352.12335"
         y="84.009552"
         ry="7.3580823"
         transform="rotate(-30.864085)" />
      <rect
         style="opacity:1;fill:#0000ff;fill-opacity:1;stroke:none;stroke-width:1.27744484;stroke-linecap:round;stroke-linejoin:round;stroke-miterlimit:4;stroke-dasharray:none;stroke-opacity:1"
         id="rect4846"
         width="47.623142"
         height="14.716166"
         x="48.096149"
         y="262.8364"
         ry="7.3580823"
         transform="rotate(-142.33891)" />
      <rect
         style="opacity:1;fill:#ffff00;fill-opacity:1;stroke:none;stroke-width:1.27744484;stroke-linecap:round;stroke-linejoin:round;stroke-miterlimit:4;stroke-dasharray:none;stroke-opacity:1"
         id="rect4848"
         width="47.623142"
         height="14.716166"
         x="1.8675567"
         y="226.32378"
         ry="7.3580823"
         transform="rotate(-142.33891)" />
      <rect
         style="opacity:1;fill:#ffff00;fill-opacity:1;stroke:none;stroke-width:1.27744484;stroke-linecap:round;stroke-linejoin:round;stroke-miterlimit:4;stroke-dasharray:none;stroke-opacity:1"
         id="rect4850"
         width="47.623142"
         height="14.716166"
         x="85.565674"
         y="81.81955"
         ry="7.3580823"
         transform="rotate(-142.33891)" />
      <rect
         style="opacity:1;fill:#ffff00;fill-opacity:1;stroke:none;stroke-width:1.27744484;stroke-linecap:round;stroke-linejoin:round;stroke-miterlimit:4;stroke-dasharray:none;stroke-opacity:1"
         id="rect4852"
         width="47.623142"
         height="14.716166"
         x="-78.453323"
         y="296.33707"
         ry="7.3580823"
         transform="rotate(-142.33891)" />
      <rect
         style="opacity:1;fill:#0000ff;fill-opacity:1;stroke:none;stroke-width:1.27744484;stroke-linecap:round;stroke-linejoin:round;stroke-miterlimit:4;stroke-dasharray:none;stroke-opacity:1"
         id="rect4854"
         width="47.623142"
         height="14.716166"
         x="-190.5742"
         y="293.96921"
         ry="7.3580823"
         transform="rotate(-142.33891)" />
      <rect
         style="opacity:1;fill:#ffff00;fill-opacity:1;stroke:none;stroke-width:1.27744484;stroke-linecap:round;stroke-linejoin:round;stroke-miterlimit:4;stroke-dasharray:none;stroke-opacity:1"
         id="rect4856"
         width="47.623142"
         height="14.716166"
         x="-195.67667"
         y="231.06284"
         ry="7.3580823"
         transform="rotate(-142.33891)" />
      <rect
         style="opacity:1;fill:#008000;fill-opacity:1;stroke:none;stroke-width:1.27744484;stroke-linecap:round;stroke-linejoin:round;stroke-miterlimit:4;stroke-dasharray:none;stroke-opacity:1"
         id="rect4858"
         width="47.623142"
         height="14.716166"
         x="-293.38351"
         y="283.74622"
         ry="7.3580823"
         transform="rotate(-142.33891)" />
      <rect
         transform="rotate(-142.33891)"
         ry="7.3580823"
         y="283.74622"
         x="-293.38351"
         height="14.716166"
         width="47.623142"
         id="rect4802"
         style="opacity:1;fill:#ffff00;fill-opacity:1;stroke:none;stroke-width:1.27744484;stroke-linecap:round;stroke-linejoin:round;stroke-miterlimit:4;stroke-dasharray:none;stroke-opacity:1" />
    </g>
  </g>
</svg>
