<?xml version="1.0" encoding="UTF-8" standalone="no"?>
<!-- Created with Inkscape (http://www.inkscape.org/) -->

<svg
   xmlns:dc="http://purl.org/dc/elements/1.1/"
   xmlns:cc="http://creativecommons.org/ns#"
   xmlns:rdf="http://www.w3.org/1999/02/22-rdf-syntax-ns#"
   xmlns:svg="http://www.w3.org/2000/svg"
   xmlns="http://www.w3.org/2000/svg"
   xmlns:sodipodi="http://sodipodi.sourceforge.net/DTD/sodipodi-0.dtd"
   xmlns:inkscape="http://www.inkscape.org/namespaces/inkscape"
   width="210mm"
   height="297mm"
   viewBox="0 0 210 297"
   version="1.1"
   id="svg3828"
   inkscape:version="0.92.0 r15299"
   sodipodi:docname="inkscape_doughnut.svg">
  <defs
     id="defs3822" />
  <sodipodi:namedview
     id="base"
     pagecolor="#ffffff"
     bordercolor="#666666"
     borderopacity="1.0"
     inkscape:pageopacity="0.0"
     inkscape:pageshadow="2"
     inkscape:zoom="0.35355339"
     inkscape:cx="509.56484"
     inkscape:cy="1328.1274"
     inkscape:document-units="mm"
     inkscape:current-layer="layer1"
     showgrid="false"
     showborder="false"
     inkscape:window-width="1920"
     inkscape:window-height="1001"
     inkscape:window-x="-9"
     inkscape:window-y="-9"
     inkscape:window-maximized="1" />
  <metadata
     id="metadata3825">
    <rdf:RDF>
      <cc:Work
         rdf:about="">
        <dc:format>image/svg+xml</dc:format>
        <dc:type
           rdf:resource="http://purl.org/dc/dcmitype/StillImage" />
        <dc:title></dc:title>
      </cc:Work>
    </rdf:RDF>
  </metadata>
  <g
     inkscape:label="Layer 1"
     inkscape:groupmode="layer"
     id="layer1">
    <path
       style="opacity:1;fill:#ffb380;fill-opacity:1;stroke-width:1.56631899;stroke-miterlimit:4;stroke-dasharray:none"
       d="M 614.88281 -1140.2441 A 944.88188 944.88188 0 0 0 -330 -195.36133 A 944.88188 944.88188 0 0 0 614.88281 749.51953 A 944.88188 944.88188 0 0 0 1559.7637 -195.36133 A 944.88188 944.88188 0 0 0 1429.0977 -672.82227 A 107.37542 107.37542 0 0 1 1336.6582 -697.66992 A 107.37542 107.37542 0 0 1 1301.7129 -793.41211 A 173.30769 173.30769 0 0 1 1104.082 -815.88477 A 173.30769 173.30769 0 0 1 1059.8398 -1013.3066 A 107.37542 107.37542 0 0 1 956.20703 -1035.2363 A 107.37542 107.37542 0 0 1 923.9668 -1087.0938 A 944.88188 944.88188 0 0 0 614.88281 -1140.2441 z M 614.88281 -526.07031 A 330.70866 330.70866 0 0 1 945.58984 -195.36133 A 330.70866 330.70866 0 0 1 614.88281 135.3457 A 330.70866 330.70866 0 0 1 284.17383 -195.36133 A 330.70866 330.70866 0 0 1 614.88281 -526.07031 z "
       transform="scale(0.26458333)"
       id="path4635" />
    <path
       style="color:#000000;font-style:normal;font-variant:normal;font-weight:normal;font-stretch:normal;font-size:medium;line-height:normal;font-family:sans-serif;font-variant-ligatures:normal;font-variant-position:normal;font-variant-caps:normal;font-variant-numeric:normal;font-variant-alternates:normal;font-feature-settings:normal;text-indent:0;text-align:start;text-decoration:none;text-decoration-line:none;text-decoration-style:solid;text-decoration-color:#000000;letter-spacing:normal;word-spacing:normal;text-transform:none;writing-mode:lr-tb;direction:ltr;text-orientation:mixed;dominant-baseline:auto;baseline-shift:baseline;text-anchor:start;white-space:normal;shape-padding:0;clip-rule:nonzero;display:inline;overflow:visible;visibility:visible;opacity:1;isolation:auto;mix-blend-mode:normal;color-interpolation:sRGB;color-interpolation-filters:linearRGB;solid-color:#000000;solid-opacity:1;vector-effect:none;fill:#532302;fill-opacity:1;fill-rule:nonzero;stroke:none;stroke-width:24.99999619;stroke-linecap:round;stroke-linejoin:round;stroke-miterlimit:4;stroke-dasharray:none;stroke-dashoffset:0;stroke-opacity:1;color-rendering:auto;image-rendering:auto;shape-rendering:auto;text-rendering:auto;enable-background:accumulate"
       d="M 611.64844 -1186.6055 C 609.12619 -1186.6087 606.60417 -1186.6031 604.08203 -1186.5879 C 273.67224 -1184.509 -50.142916 -1004.9989 -223.8418 -723.34375 C -331.43646 -550.91959 -386.51376 -344.77181 -374.60156 -141.66602 C -371.17295 -98.837237 -334.02642 -64.879086 -291.57812 -62.761719 C -248.10531 -53.974238 -203.37589 -79.457401 -186.76953 -120.19922 C -148.0933 -199.36686 -156.02483 -295.77594 -104.31445 -369.23438 C -76.276304 -406.64913 -21.982879 -403.35254 17.294922 -389.46875 C 66.395339 -369.05844 74.375537 -307.61634 76.322266 -261.34766 C 81.886452 -196.91654 68.308773 -125.19613 103.50977 -67.056641 C 138.34382 -15.357191 216.16921 -18.410139 263.54883 -50.144531 C 317.5337 -86.604704 334.3911 -155.94999 332.0293 -217.60352 C 338.55902 -362.63327 475.46392 -484.29508 619.76953 -479.38086 C 769.10649 -479.52297 905.49565 -342.98814 898.88477 -191.97266 C 901.48032 -112.67223 887.81216 -26.650684 926.125 46.484375 C 960.65888 109.67645 1051.2991 113.88429 1106.2871 76.556641 C 1172.3457 30.00346 1184.5985 -57.044089 1197.4102 -130.8125 C 1207.3558 -175.03733 1206.0623 -226.02815 1235.5664 -263.11328 C 1261.2731 -278.78048 1293.1705 -255.67358 1307.8945 -234.39648 C 1365.5669 -153.56712 1367.7299 -45.9588 1424.2695 35.839844 C 1449.6934 73.028241 1503.3988 73.078269 1537.9863 49.326172 C 1592.0065 11.132581 1599.6526 -61.856121 1604.0625 -122.67188 C 1612.8132 -316.52127 1571.1309 -514.40736 1476.8203 -684.5957 C 1475.7403 -686.51981 1474.6521 -688.43949 1473.5586 -690.35547 A 107.37542 118.68191 41.582107 0 1 1317.041 -675.5625 A 107.37542 118.68191 41.582107 0 1 1285.4805 -775.11914 A 173.30769 191.55677 41.582107 0 1 1079.8574 -788.58398 A 173.30769 191.55677 41.582107 0 1 1043.8848 -995.32422 A 107.37542 118.68191 41.582107 0 1 936.5918 -1013.1289 A 107.37542 118.68191 41.582107 0 1 913.91797 -1140.4238 C 852.54772 -1159.9925 789.21184 -1173.4551 724.90625 -1180.1133 C 687.31924 -1184.4366 649.48218 -1186.5576 611.64844 -1186.6055 z "
       transform="scale(0.26458333)"
       id="path4666" />
    <path
       style="opacity:1;fill:#784421;fill-opacity:1;stroke-width:1.56631899;stroke-miterlimit:4;stroke-dasharray:none"
       d="M 610.83789 -1164.5488 C 606.39809 -1164.5478 601.95898 -1164.519 597.51953 -1164.457 C 314.25944 -1159.8031 36.088606 -1024.4802 -140.39062 -802.48242 C -277.4495 -632.62264 -353.17091 -415.29783 -354.29297 -197.48047 C -354.34847 -151.44203 -362.35237 -83.783203 -271.54102 -83.783203 C -136.77722 -83.783203 -217.23289 -420.81836 -39.753906 -420.81836 C 213.12554 -420.81836 3.2175786 -49.416016 186.12109 -49.416016 C 271.31002 -49.416016 309.5427 -125.28403 309.28906 -197.48047 C 309.31366 -260.74657 328.27584 -323.76497 367.23633 -374.78125 C 423.14011 -450.67132 514.66938 -501.09485 609.64062 -501.26758 C 763.0778 -506.92194 907.02157 -380.06101 919.4668 -226.89062 C 920.53409 -217.11801 921.06231 -186.0867 921.09375 -176.26758 C 921.09375 -66.302661 907.91265 78.0625 1024.5957 78.0625 C 1230.0267 78.0625 1134.1939 -294.77775 1252.3027 -290.39844 C 1393.0078 -285.18128 1383.8382 43.794922 1480.0078 43.794922 C 1564.4955 43.794922 1583.5098 -54.021918 1583.5098 -176.26758 C 1582.9355 -342.08416 1540.4473 -528.07671 1457.8711 -673.15625 A 107.37542 128.74834 41.582107 0 1 1299.5781 -655.87891 A 107.37542 128.74834 41.582107 0 1 1271.0293 -758.83203 A 173.30769 207.80433 41.582107 0 1 1058.291 -764.27734 A 173.30769 207.80433 41.582107 0 1 1029.6777 -979.31445 A 107.37542 128.74834 41.582107 0 1 919.12695 -993.44727 A 107.37542 128.74834 41.582107 0 1 899.11328 -1121.7871 C 869.59266 -1130.807 839.60928 -1138.3787 809.26172 -1144.3848 C 744.02749 -1157.7886 677.43494 -1164.5637 610.83789 -1164.5488 z "
       transform="scale(0.26458333)"
       id="path4653" />
    <path
       style="opacity:0.50883394;fill:#ffffff;fill-opacity:1;stroke-width:1.56631899;stroke-miterlimit:4;stroke-dasharray:none"
       d="M -35.242188 -399.12891 C -52.638689 -399.24977 -69.768187 -395.90586 -84.195312 -387.32227 C -86.320426 -379.20841 -88.295049 -371.04591 -90.095703 -362.83398 C -164.68449 -56.340866 -13.485767 295.05513 269.07031 440.82422 C 509.99374 571.19331 828.12775 555.36277 1046.7891 385.78516 C 1222.1586 255.22222 1332.9541 41.395536 1339.8105 -175.92969 C 1331.1641 -196.38312 1320.9627 -216.08111 1307.8945 -234.39648 C 1293.1705 -255.67358 1261.2731 -278.78048 1235.5664 -263.11328 C 1206.0623 -226.02815 1207.3558 -175.03733 1197.4102 -130.8125 C 1184.5985 -57.044089 1172.3457 30.00346 1106.2871 76.556641 C 1100.5269 80.466839 1094.3708 83.915981 1087.9336 86.894531 C 992.38746 242.36105 822.53901 353.94201 637.80273 357.74023 C 371.0769 370.97906 109.98117 164.44864 69.384766 -101.01367 C 57.543547 -167.03949 59.370045 -234.64695 72.880859 -300.00391 C 67.316701 -337.11281 53.474252 -374.42954 17.294922 -389.46875 C 1.3383154 -395.10904 -17.096371 -399.00284 -35.242188 -399.12891 z "
       transform="scale(0.26458333)"
       id="path4669" />
    <path
       style="opacity:0.50883394;fill:#ffffff;fill-opacity:1;stroke-width:1.56631899;stroke-miterlimit:4;stroke-dasharray:none"
       d="M 616.76172 -918.99023 C 614.0407 -918.98387 611.31963 -918.95997 608.59961 -918.91992 C 315.06052 -920.93239 32.065529 -716.97213 -67.072266 -442.39844 C -12.142416 -453.55256 51.337245 -437.8821 86.242188 -392.6582 C 89.502086 -388.14737 92.474496 -383.54004 95.199219 -378.85156 C 150.46382 -531.58118 269.96312 -661.74621 425.44141 -714.33789 C 489.71983 -737.39335 558.08934 -748.65005 626.33789 -748.42773 C 904.12435 -748.22267 1154.0226 -503.595 1168.043 -228.26367 C 1176.9499 -261.95802 1192.1063 -296.38628 1225.2383 -310.22461 C 1265.5821 -324.51603 1307.8317 -305.00509 1335.6562 -274.4707 C 1332.5382 -300.97543 1327.7797 -327.35305 1321.2969 -353.45508 C 1291.1448 -485.63624 1222.422 -609.17793 1127.2109 -705.94727 A 173.30769 223.34547 41.582107 0 1 1037.6621 -741.02734 A 173.30769 223.34547 41.582107 0 1 995.24219 -811.66016 C 954.38391 -836.94783 910.83359 -857.92767 865.11328 -873.76562 C 785.84982 -903.24091 701.1133 -919.18746 616.76172 -918.99023 z "
       transform="scale(0.26458333)"
       id="path4731" />
    <rect
       transform="rotate(-52.007232)"
       ry="7.3580823"
       y="-85.582779"
       x="142.87332"
       height="14.716166"
       width="47.623142"
       id="rect4830"
       style="opacity:1;fill:#0000ff;fill-opacity:1;stroke:none;stroke-width:1.27744484;stroke-linecap:round;stroke-linejoin:round;stroke-miterlimit:4;stroke-dasharray:none;stroke-opacity:1" />
    <rect
       transform="rotate(-30.864085)"
       ry="7.3580823"
       y="-194.8159"
       x="112.50817"
       height="14.716166"
       width="47.623142"
       id="rect4832"
       style="opacity:1;fill:#008000;fill-opacity:1;stroke:none;stroke-width:1.27744484;stroke-linecap:round;stroke-linejoin:round;stroke-miterlimit:4;stroke-dasharray:none;stroke-opacity:1" />
    <rect
       transform="rotate(-30.864085)"
       ry="7.3580823"
       y="-83.709595"
       x="97.273705"
       height="14.716166"
       width="47.623142"
       id="rect4834"
       style="opacity:1;fill:#008000;fill-opacity:1;stroke:none;stroke-width:1.27744484;stroke-linecap:round;stroke-linejoin:round;stroke-miterlimit:4;stroke-dasharray:none;stroke-opacity:1" />
    <rect
       transform="rotate(-30.864085)"
       ry="7.3580823"
       y="-153.97508"
       x="267.49197"
       height="14.716166"
       width="47.623142"
       id="rect4836"
       style="opacity:1;fill:#008000;fill-opacity:1;stroke:none;stroke-width:1.27744484;stroke-linecap:round;stroke-linejoin:round;stroke-miterlimit:4;stroke-dasharray:none;stroke-opacity:1" />
    <rect
       style="opacity:1;fill:#0000ff;fill-opacity:1;stroke:none;stroke-width:1.27744484;stroke-linecap:round;stroke-linejoin:round;stroke-miterlimit:4;stroke-dasharray:none;stroke-opacity:1"
       id="rect4860"
       width="47.623142"
       height="14.716166"
       x="213.03249"
       y="-54.59824"
       ry="7.3580823"
       transform="rotate(-30.864085)" />
    <rect
       style="opacity:1;fill:#008000;fill-opacity:1;stroke:none;stroke-width:1.27744484;stroke-linecap:round;stroke-linejoin:round;stroke-miterlimit:4;stroke-dasharray:none;stroke-opacity:1"
       id="rect4862"
       width="47.623142"
       height="14.716166"
       x="262.40906"
       y="2.0355341"
       ry="7.3580823"
       transform="rotate(-30.864085)" />
    <rect
       transform="rotate(-30.864085)"
       ry="7.3580823"
       y="2.0355341"
       x="262.40906"
       height="14.716166"
       width="47.623142"
       id="rect4838"
       style="opacity:1;fill:#008000;fill-opacity:1;stroke:none;stroke-width:1.27744484;stroke-linecap:round;stroke-linejoin:round;stroke-miterlimit:4;stroke-dasharray:none;stroke-opacity:1" />
    <rect
       transform="rotate(-30.864085)"
       ry="7.3580823"
       y="107.51905"
       x="244.98676"
       height="14.716166"
       width="47.623142"
       id="rect4840"
       style="opacity:1;fill:#0000ff;fill-opacity:1;stroke:none;stroke-width:1.27744484;stroke-linecap:round;stroke-linejoin:round;stroke-miterlimit:4;stroke-dasharray:none;stroke-opacity:1" />
    <rect
       transform="rotate(-30.864085)"
       ry="7.3580823"
       y="84.009552"
       x="352.12335"
       height="14.716166"
       width="47.623142"
       id="rect4842"
       style="opacity:1;fill:#ffff00;fill-opacity:1;stroke:none;stroke-width:1.27744484;stroke-linecap:round;stroke-linejoin:round;stroke-miterlimit:4;stroke-dasharray:none;stroke-opacity:1" />
    <rect
       transform="rotate(-142.33891)"
       ry="7.3580823"
       y="262.8364"
       x="48.096149"
       height="14.716166"
       width="47.623142"
       id="rect4846"
       style="opacity:1;fill:#0000ff;fill-opacity:1;stroke:none;stroke-width:1.27744484;stroke-linecap:round;stroke-linejoin:round;stroke-miterlimit:4;stroke-dasharray:none;stroke-opacity:1" />
    <rect
       transform="rotate(-142.33891)"
       ry="7.3580823"
       y="226.32378"
       x="1.8675567"
       height="14.716166"
       width="47.623142"
       id="rect4848"
       style="opacity:1;fill:#ffff00;fill-opacity:1;stroke:none;stroke-width:1.27744484;stroke-linecap:round;stroke-linejoin:round;stroke-miterlimit:4;stroke-dasharray:none;stroke-opacity:1" />
    <rect
       transform="rotate(-142.33891)"
       ry="7.3580823"
       y="81.81955"
       x="85.565674"
       height="14.716166"
       width="47.623142"
       id="rect4850"
       style="opacity:1;fill:#ffff00;fill-opacity:1;stroke:none;stroke-width:1.27744484;stroke-linecap:round;stroke-linejoin:round;stroke-miterlimit:4;stroke-dasharray:none;stroke-opacity:1" />
    <rect
       transform="rotate(-142.33891)"
       ry="7.3580823"
       y="296.33707"
       x="-78.453323"
       height="14.716166"
       width="47.623142"
       id="rect4852"
       style="opacity:1;fill:#ffff00;fill-opacity:1;stroke:none;stroke-width:1.27744484;stroke-linecap:round;stroke-linejoin:round;stroke-miterlimit:4;stroke-dasharray:none;stroke-opacity:1" />
    <rect
       transform="rotate(-142.33891)"
       ry="7.3580823"
       y="293.96921"
       x="-190.5742"
       height="14.716166"
       width="47.623142"
       id="rect4854"
       style="opacity:1;fill:#0000ff;fill-opacity:1;stroke:none;stroke-width:1.27744484;stroke-linecap:round;stroke-linejoin:round;stroke-miterlimit:4;stroke-dasharray:none;stroke-opacity:1" />
    <rect
       transform="rotate(-142.33891)"
       ry="7.3580823"
       y="231.06284"
       x="-195.67667"
       height="14.716166"
       width="47.623142"
       id="rect4856"
       style="opacity:1;fill:#ffff00;fill-opacity:1;stroke:none;stroke-width:1.27744484;stroke-linecap:round;stroke-linejoin:round;stroke-miterlimit:4;stroke-dasharray:none;stroke-opacity:1" />
    <rect
       transform="rotate(-142.33891)"
       ry="7.3580823"
       y="283.74622"
       x="-293.38351"
       height="14.716166"
       width="47.623142"
       id="rect4858"
       style="opacity:1;fill:#008000;fill-opacity:1;stroke:none;stroke-width:1.27744484;stroke-linecap:round;stroke-linejoin:round;stroke-miterlimit:4;stroke-dasharray:none;stroke-opacity:1" />
    <rect
       style="opacity:1;fill:#ffff00;fill-opacity:1;stroke:none;stroke-width:1.27744484;stroke-linecap:round;stroke-linejoin:round;stroke-miterlimit:4;stroke-dasharray:none;stroke-opacity:1"
       id="rect4802"
       width="47.623142"
       height="14.716166"
       x="-293.38351"
       y="283.74622"
       ry="7.3580823"
       transform="rotate(-142.33891)" />
  </g>
</svg>
