  0
SECTION
  2
HEADER
  9
$ACADVER
  1
AC1014
  9
$HANDSEED
  5
FFFF
  9
$MEASUREMENT
 70
     1
  0
ENDSEC
  0
SECTION
  2
TABLES
  0
TABLE
  2
VPORT
  5
8
330
0
100
AcDbSymbolTable
 70
     4
  0
VPORT
  5
2E
330
8
100
AcDbSymbolTableRecord
100
AcDbViewportTableRecord
  2
*ACTIVE
 70
     0
 10
0.0
 20
0.0
 11
1.0
 21
1.0
 12
210.0
 22
148.5
 13
0.0
 23
0.0
 14
10.0
 24
10.0
 15
10.0
 25
10.0
 16
0.0
 26
0.0
 36
1.0
 17
0.0
 27
0.0
 37
0.0
 40
341.0
 41
1.24
 42
50.0
 43
0.0
 44
0.0
 50
0.0
 51
0.0
 71
     0
 72
   100
 73
     1
 74
     3
 75
     0
 76
     0
 77
     0
 78
     0
  0
ENDTAB
  0
TABLE
  2
LTYPE
  5
5
330
0
100
AcDbSymbolTable
 70
     1
  0
LTYPE
  5
14
330
5
100
AcDbSymbolTableRecord
100
AcDbLinetypeTableRecord
  2
BYBLOCK
 70
     0
  3

 72
    65
 73
     0
 40
0.0
  0
LTYPE
  5
15
330
5
100
AcDbSymbolTableRecord
100
AcDbLinetypeTableRecord
  2
BYLAYER
 70
     0
  3

 72
    65
 73
     0
 40
0.0
  0
LTYPE
  5
16
330
5
100
AcDbSymbolTableRecord
100
AcDbLinetypeTableRecord
  2
CONTINUOUS
 70
     0
  3
Solid line
 72
    65
 73
     0
 40
0.0
  0
ENDTAB
  0
TABLE
  2
LAYER
  5
2
100
AcDbSymbolTable
 70
2
  0
LAYER
  5
50
100
AcDbSymbolTableRecord
100
AcDbLayerTableRecord
  2
0
 70
0
  6
CONTINUOUS
  0
LAYER
  5
51
100
AcDbSymbolTableRecord
100
AcDbLayerTableRecord
  2
Layer_1
 70
0
  6
CONTINUOUS
  0
ENDTAB
  0
TABLE
  2
STYLE
  5
3
330
0
100
AcDbSymbolTable
 70
     1
  0
STYLE
  5
11
330
3
100
AcDbSymbolTableRecord
100
AcDbTextStyleTableRecord
  2
STANDARD
 70
     0
 40
0.0
 41
1.0
 50
0.0
 71
     0
 42
2.5
  3
txt
  4

  0
ENDTAB
  0
TABLE
  2
VIEW
  5
6
330
0
100
AcDbSymbolTable
 70
     0
  0
ENDTAB
  0
TABLE
  2
UCS
  5
7
330
0
100
AcDbSymbolTable
 70
     0
  0
ENDTAB
  0
TABLE
  2
APPID
  5
9
330
0
100
AcDbSymbolTable
 70
     2
  0
APPID
  5
12
330
9
100
AcDbSymbolTableRecord
100
AcDbRegAppTableRecord
  2
ACAD
 70
     0
  0
ENDTAB
  0
TABLE
  2
DIMSTYLE
  5
A
330
0
100
AcDbSymbolTable
 70
     1
  0
DIMSTYLE
105
27
330
A
100
AcDbSymbolTableRecord
100
AcDbDimStyleTableRecord
  2
ISO-25
 70
     0
  3

  4

  5

  6

  7

 40
1.0
 41
2.5
 42
0.625
 43
3.75
 44
1.25
 45
0.0
 46
0.0
 47
0.0
 48
0.0
140
2.5
141
2.5
142
0.0
143
0.03937007874016
144
1.0
145
0.0
146
1.0
147
0.625
 71
     0
 72
     0
 73
     0
 74
     0
 75
     0
 76
     0
 77
     1
 78
     8
170
     0
171
     3
172
     1
173
     0
174
     0
175
     0
176
     0
177
     0
178
     0
270
     2
271
     2
272
     2
273
     2
274
     3
340
11
275
     0
280
     0
281
     0
282
     0
283
     0
284
     8
285
     0
286
     0
287
     3
288
     0
  0
ENDTAB
  0
TABLE
  2
BLOCK_RECORD
  5
1
330
0
100
AcDbSymbolTable
 70
     1
  0
BLOCK_RECORD
  5
1F
330
1
100
AcDbSymbolTableRecord
100
AcDbBlockTableRecord
  2
*MODEL_SPACE
  0
BLOCK_RECORD
  5
1B
330
1
100
AcDbSymbolTableRecord
100
AcDbBlockTableRecord
  2
*PAPER_SPACE
  0
ENDTAB
  0
ENDSEC
  0
SECTION
  2
BLOCKS
  0
BLOCK
  5
20
330
1F
100
AcDbEntity
  8
0
100
AcDbBlockBegin
  2
*MODEL_SPACE
 70
     0
 10
0.0
 20
0.0
 30
0.0
  3
*MODEL_SPACE
  1

  0
ENDBLK
  5
21
330
1F
100
AcDbEntity
  8
0
100
AcDbBlockEnd
  0
BLOCK
  5
1C
330
1B
100
AcDbEntity
 67
     1
  8
0
100
AcDbBlockBegin
  2
*PAPER_SPACE
  1

  0
ENDBLK
  5
1D
330
1B
100
AcDbEntity
 67
     1
  8
0
100
AcDbBlockEnd
  0
ENDSEC
  0
SECTION
  2
ENTITIES
  0
SPLINE
  5
100
100
AcDbEntity
  8
Layer_1
 62
7
100
AcDbSpline
 70
8
 71
3
 72
8
 73
4
 74
0
 40
0
 40
0
 40
0
 40
0
 40
1
 40
1
 40
1
 40
1
 10
78.263384
 20
171.596751
 30
0.0
 10
63.671701
 20
171.596765
 30
0.0
 10
49.677651
 20
165.800248
 30
0.0
 10
39.359772
 20
155.482370
 30
0.0
  0
SPLINE
  5
101
100
AcDbEntity
  8
Layer_1
 62
7
100
AcDbSpline
 70
8
 71
3
 72
8
 73
4
 74
0
 40
0
 40
0
 40
0
 40
0
 40
1
 40
1
 40
1
 40
1
 10
39.359772
 20
155.482370
 30
0.0
 10
29.041894
 20
145.164492
 30
0.0
 10
23.245376
 20
131.170443
 30
0.0
 10
23.245390
 20
116.578759
 30
0.0
  0
SPLINE
  5
102
100
AcDbEntity
  8
Layer_1
 62
7
100
AcDbSpline
 70
8
 71
3
 72
8
 73
4
 74
0
 40
0
 40
0
 40
0
 40
0
 40
1
 40
1
 40
1
 40
1
 10
23.245390
 20
116.578759
 30
0.0
 10
23.245423
 20
86.193192
 30
0.0
 10
47.877817
 20
61.560849
 30
0.0
 10
78.263384
 20
61.560879
 30
0.0
  0
SPLINE
  5
103
100
AcDbEntity
  8
Layer_1
 62
7
100
AcDbSpline
 70
8
 71
3
 72
8
 73
4
 74
0
 40
0
 40
0
 40
0
 40
0
 40
1
 40
1
 40
1
 40
1
 10
78.263384
 20
61.560879
 30
0.0
 10
108.648907
 20
61.560911
 30
0.0
 10
133.281233
 20
86.193236
 30
0.0
 10
133.281266
 20
116.578759
 30
0.0
  0
SPLINE
  5
104
100
AcDbEntity
  8
Layer_1
 62
7
100
AcDbSpline
 70
8
 71
3
 72
8
 73
4
 74
0
 40
0
 40
0
 40
0
 40
0
 40
1
 40
1
 40
1
 40
1
 10
133.281266
 20
116.578759
 30
0.0
 10
133.260840
 20
126.357313
 30
0.0
 10
130.634601
 20
135.953738
 30
0.0
 10
125.672935
 20
144.380030
 30
0.0
  0
SPLINE
  5
105
100
AcDbEntity
  8
Layer_1
 62
7
100
AcDbSpline
 70
8
 71
3
 72
8
 73
4
 74
0
 40
0
 40
0
 40
0
 40
0
 40
1
 40
1
 40
1
 40
1
 10
125.672935
 20
144.380030
 30
0.0
 10
123.751159
 20
143.991674
 30
0.0
 10
121.758500
 20
144.527299
 30
0.0
 10
120.290431
 20
145.826842
 30
0.0
  0
SPLINE
  5
106
100
AcDbEntity
  8
Layer_1
 62
7
100
AcDbSpline
 70
8
 71
3
 72
8
 73
4
 74
0
 40
0
 40
0
 40
0
 40
0
 40
1
 40
1
 40
1
 40
1
 10
120.290431
 20
145.826842
 30
0.0
 10
118.717266
 20
147.224304
 30
0.0
 10
117.952578
 20
149.319374
 30
0.0
 10
118.255660
 20
151.401654
 30
0.0
  0
SPLINE
  5
107
100
AcDbEntity
  8
Layer_1
 62
7
100
AcDbSpline
 70
8
 71
3
 72
8
 73
4
 74
0
 40
0
 40
0
 40
0
 40
0
 40
1
 40
1
 40
1
 40
1
 10
118.255660
 20
151.401654
 30
0.0
 10
114.526385
 20
149.374148
 30
0.0
 10
109.926998
 20
149.897145
 30
0.0
 10
106.748142
 20
152.710176
 30
0.0
  0
SPLINE
  5
108
100
AcDbEntity
  8
Layer_1
 62
7
100
AcDbSpline
 70
8
 71
3
 72
8
 73
4
 74
0
 40
0
 40
0
 40
0
 40
0
 40
1
 40
1
 40
1
 40
1
 10
106.748142
 20
152.710176
 30
0.0
 10
103.509855
 20
155.591100
 30
0.0
 10
102.472938
 20
160.218130
 30
0.0
 10
104.172037
 20
164.205521
 30
0.0
  0
SPLINE
  5
109
100
AcDbEntity
  8
Layer_1
 62
7
100
AcDbSpline
 70
8
 71
3
 72
8
 73
4
 74
0
 40
0
 40
0
 40
0
 40
0
 40
1
 40
1
 40
1
 40
1
 10
104.172037
 20
164.205521
 30
0.0
 10
102.076026
 20
163.540350
 30
0.0
 10
99.784674
 20
164.025222
 30
0.0
 10
98.137779
 20
165.482428
 30
0.0
  0
SPLINE
  5
10a
100
AcDbEntity
  8
Layer_1
 62
7
100
AcDbSpline
 70
8
 71
3
 72
8
 73
4
 74
0
 40
0
 40
0
 40
0
 40
0
 40
1
 40
1
 40
1
 40
1
 10
98.137779
 20
165.482428
 30
0.0
 10
97.232989
 20
166.286048
 30
0.0
 10
96.580861
 20
167.334977
 30
0.0
 10
96.260516
 20
168.501952
 30
0.0
  0
SPLINE
  5
10b
100
AcDbEntity
  8
Layer_1
 62
7
100
AcDbSpline
 70
8
 71
3
 72
8
 73
4
 74
0
 40
0
 40
0
 40
0
 40
0
 40
1
 40
1
 40
1
 40
1
 10
96.260516
 20
168.501952
 30
0.0
 10
90.475754
 20
170.528887
 30
0.0
 10
84.392940
 20
171.574892
 30
0.0
 10
78.263384
 20
171.596751
 30
0.0
  0
SPLINE
  5
10c
100
AcDbEntity
  8
Layer_1
 62
7
100
AcDbSpline
 70
8
 71
3
 72
8
 73
4
 74
0
 40
0
 40
0
 40
0
 40
0
 40
1
 40
1
 40
1
 40
1
 10
78.263384
 20
135.835057
 30
0.0
 10
88.898303
 20
135.835005
 30
0.0
 10
97.519578
 20
127.213679
 30
0.0
 10
97.519568
 20
116.578759
 30
0.0
  0
SPLINE
  5
10d
100
AcDbEntity
  8
Layer_1
 62
7
100
AcDbSpline
 70
8
 71
3
 72
8
 73
4
 74
0
 40
0
 40
0
 40
0
 40
0
 40
1
 40
1
 40
1
 40
1
 10
97.519568
 20
116.578759
 30
0.0
 10
97.519516
 20
105.943884
 30
0.0
 10
88.898259
 20
97.322627
 30
0.0
 10
78.263384
 20
97.322575
 30
0.0
  0
SPLINE
  5
10e
100
AcDbEntity
  8
Layer_1
 62
7
100
AcDbSpline
 70
8
 71
3
 72
8
 73
4
 74
0
 40
0
 40
0
 40
0
 40
0
 40
1
 40
1
 40
1
 40
1
 10
78.263384
 20
97.322575
 30
0.0
 10
67.628464
 20
97.322565
 30
0.0
 10
59.007139
 20
105.943840
 30
0.0
 10
59.007086
 20
116.578759
 30
0.0
  0
SPLINE
  5
10f
100
AcDbEntity
  8
Layer_1
 62
7
100
AcDbSpline
 70
8
 71
3
 72
8
 73
4
 74
0
 40
0
 40
0
 40
0
 40
0
 40
1
 40
1
 40
1
 40
1
 10
59.007086
 20
116.578759
 30
0.0
 10
59.007081
 20
121.685848
 30
0.0
 10
61.035862
 20
126.583766
 30
0.0
 10
64.647120
 20
130.195023
 30
0.0
  0
SPLINE
  5
110
100
AcDbEntity
  8
Layer_1
 62
7
100
AcDbSpline
 70
8
 71
3
 72
8
 73
4
 74
0
 40
0
 40
0
 40
0
 40
0
 40
1
 40
1
 40
1
 40
1
 10
64.647120
 20
130.195023
 30
0.0
 10
68.258377
 20
133.806281
 30
0.0
 10
73.156295
 20
135.835062
 30
0.0
 10
78.263384
 20
135.835057
 30
0.0
  0
LWPOLYLINE
  5
111
100
AcDbEntity
  8
Layer_1
 62
7
100
AcDbPolyline
 90
1
 70
1
 10
78.263384
 20
171.596751
 30
0.0
  0
SPLINE
  5
112
100
AcDbEntity
  8
Layer_1
 62
7
100
AcDbSpline
 70
8
 71
3
 72
8
 73
4
 74
0
 40
0
 40
0
 40
0
 40
0
 40
1
 40
1
 40
1
 40
1
 10
78.075055
 20
174.296251
 30
0.0
 10
77.928191
 20
174.296251
 30
0.0
 10
77.781341
 20
174.296251
 30
0.0
 10
77.634483
 20
174.295203
 30
0.0
  0
SPLINE
  5
113
100
AcDbEntity
  8
Layer_1
 62
7
100
AcDbSpline
 70
8
 71
3
 72
8
 73
4
 74
0
 40
0
 40
0
 40
0
 40
0
 40
1
 40
1
 40
1
 40
1
 10
77.634483
 20
174.295203
 30
0.0
 10
58.395607
 20
174.174154
 30
0.0
 10
39.540718
 20
163.721762
 30
0.0
 10
29.426697
 20
147.321738
 30
0.0
  0
SPLINE
  5
114
100
AcDbEntity
  8
Layer_1
 62
7
100
AcDbSpline
 70
8
 71
3
 72
8
 73
4
 74
0
 40
0
 40
0
 40
0
 40
0
 40
1
 40
1
 40
1
 40
1
 10
29.426697
 20
147.321738
 30
0.0
 10
23.161749
 20
137.281941
 30
0.0
 10
19.954745
 20
125.278508
 30
0.0
 10
20.648360
 20
113.452202
 30
0.0
  0
SPLINE
  5
115
100
AcDbEntity
  8
Layer_1
 62
7
100
AcDbSpline
 70
8
 71
3
 72
8
 73
4
 74
0
 40
0
 40
0
 40
0
 40
0
 40
1
 40
1
 40
1
 40
1
 10
20.648360
 20
113.452202
 30
0.0
 10
20.847999
 20
110.958397
 30
0.0
 10
23.010942
 20
108.981105
 30
0.0
 10
25.482593
 20
108.857816
 30
0.0
  0
SPLINE
  5
116
100
AcDbEntity
  8
Layer_1
 62
7
100
AcDbSpline
 70
8
 71
3
 72
8
 73
4
 74
0
 40
0
 40
0
 40
0
 40
0
 40
1
 40
1
 40
1
 40
1
 10
25.482593
 20
108.857816
 30
0.0
 10
28.013898
 20
108.346144
 30
0.0
 10
30.618372
 20
109.829961
 30
0.0
 10
31.585316
 20
112.202248
 30
0.0
  0
SPLINE
  5
117
100
AcDbEntity
  8
Layer_1
 62
7
100
AcDbSpline
 70
8
 71
3
 72
8
 73
4
 74
0
 40
0
 40
0
 40
0
 40
0
 40
1
 40
1
 40
1
 40
1
 10
31.585316
 20
112.202248
 30
0.0
 10
33.837329
 20
116.811967
 30
0.0
 10
33.375498
 20
122.425610
 30
0.0
 10
36.386455
 20
126.702898
 30
0.0
  0
SPLINE
  5
118
100
AcDbEntity
  8
Layer_1
 62
7
100
AcDbSpline
 70
8
 71
3
 72
8
 73
4
 74
0
 40
0
 40
0
 40
0
 40
0
 40
1
 40
1
 40
1
 40
1
 10
36.386455
 20
126.702898
 30
0.0
 10
38.019041
 20
128.881458
 30
0.0
 10
41.180401
 20
128.689507
 30
0.0
 10
43.467442
 20
127.881091
 30
0.0
  0
SPLINE
  5
119
100
AcDbEntity
  8
Layer_1
 62
7
100
AcDbSpline
 70
8
 71
3
 72
8
 73
4
 74
0
 40
0
 40
0
 40
0
 40
0
 40
1
 40
1
 40
1
 40
1
 10
43.467442
 20
127.881091
 30
0.0
 10
46.326428
 20
126.692653
 30
0.0
 10
46.791094
 20
123.115044
 30
0.0
 10
46.904447
 20
120.420943
 30
0.0
  0
SPLINE
  5
11a
100
AcDbEntity
  8
Layer_1
 62
7
100
AcDbSpline
 70
8
 71
3
 72
8
 73
4
 74
0
 40
0
 40
0
 40
0
 40
0
 40
1
 40
1
 40
1
 40
1
 10
46.904447
 20
120.420943
 30
0.0
 10
47.228434
 20
116.669292
 30
0.0
 10
46.437842
 20
112.493204
 30
0.0
 10
48.487502
 20
109.107898
 30
0.0
  0
SPLINE
  5
11b
100
AcDbEntity
  8
Layer_1
 62
7
100
AcDbSpline
 70
8
 71
3
 72
8
 73
4
 74
0
 40
0
 40
0
 40
0
 40
0
 40
1
 40
1
 40
1
 40
1
 10
48.487502
 20
109.107898
 30
0.0
 10
50.515795
 20
106.097577
 30
0.0
 10
55.047359
 20
106.275342
 30
0.0
 10
57.806148
 20
108.123151
 30
0.0
  0
SPLINE
  5
11c
100
AcDbEntity
  8
Layer_1
 62
7
100
AcDbSpline
 70
8
 71
3
 72
8
 73
4
 74
0
 40
0
 40
0
 40
0
 40
0
 40
1
 40
1
 40
1
 40
1
 10
57.806148
 20
108.123151
 30
0.0
 10
60.949542
 20
110.246129
 30
0.0
 10
61.931103
 20
114.283919
 30
0.0
 10
61.793582
 20
117.873839
 30
0.0
  0
SPLINE
  5
11d
100
AcDbEntity
  8
Layer_1
 62
7
100
AcDbSpline
 70
8
 71
3
 72
8
 73
4
 74
0
 40
0
 40
0
 40
0
 40
0
 40
1
 40
1
 40
1
 40
1
 10
61.793582
 20
117.873839
 30
0.0
 10
62.173790
 20
126.318533
 30
0.0
 10
70.145396
 20
133.402574
 30
0.0
 10
78.547925
 20
133.116432
 30
0.0
  0
SPLINE
  5
11e
100
AcDbEntity
  8
Layer_1
 62
7
100
AcDbSpline
 70
8
 71
3
 72
8
 73
4
 74
0
 40
0
 40
0
 40
0
 40
0
 40
1
 40
1
 40
1
 40
1
 10
78.547925
 20
133.116432
 30
0.0
 10
87.243416
 20
133.124707
 30
0.0
 10
95.184991
 20
125.174650
 30
0.0
 10
94.800057
 20
116.381423
 30
0.0
  0
SPLINE
  5
11f
100
AcDbEntity
  8
Layer_1
 62
7
100
AcDbSpline
 70
8
 71
3
 72
8
 73
4
 74
0
 40
0
 40
0
 40
0
 40
0
 40
1
 40
1
 40
1
 40
1
 10
94.800057
 20
116.381423
 30
0.0
 10
94.951189
 20
111.763971
 30
0.0
 10
94.155329
 20
106.755167
 30
0.0
 10
96.386183
 20
102.496709
 30
0.0
  0
SPLINE
  5
120
100
AcDbEntity
  8
Layer_1
 62
7
100
AcDbSpline
 70
8
 71
3
 72
8
 73
4
 74
0
 40
0
 40
0
 40
0
 40
0
 40
1
 40
1
 40
1
 40
1
 10
96.386183
 20
102.496709
 30
0.0
 10
98.396998
 20
98.817203
 30
0.0
 10
103.674735
 20
98.572192
 30
0.0
 10
106.876539
 20
100.745681
 30
0.0
  0
SPLINE
  5
121
100
AcDbEntity
  8
Layer_1
 62
7
100
AcDbSpline
 70
8
 71
3
 72
8
 73
4
 74
0
 40
0
 40
0
 40
0
 40
0
 40
1
 40
1
 40
1
 40
1
 10
106.876539
 20
100.745681
 30
0.0
 10
110.722954
 20
103.456348
 30
0.0
 10
111.436402
 20
108.524894
 30
0.0
 10
112.182393
 20
112.820231
 30
0.0
  0
SPLINE
  5
122
100
AcDbEntity
  8
Layer_1
 62
7
100
AcDbSpline
 70
8
 71
3
 72
8
 73
4
 74
0
 40
0
 40
0
 40
0
 40
0
 40
1
 40
1
 40
1
 40
1
 10
112.182393
 20
112.820231
 30
0.0
 10
112.761499
 20
115.395324
 30
0.0
 10
112.686181
 20
118.364383
 30
0.0
 10
114.404126
 20
120.523750
 30
0.0
  0
SPLINE
  5
123
100
AcDbEntity
  8
Layer_1
 62
7
100
AcDbSpline
 70
8
 71
3
 72
8
 73
4
 74
0
 40
0
 40
0
 40
0
 40
0
 40
1
 40
1
 40
1
 40
1
 10
114.404126
 20
120.523750
 30
0.0
 10
115.900958
 20
121.436010
 30
0.0
 10
117.758259
 20
120.090557
 30
0.0
 10
118.615598
 20
118.851648
 30
0.0
  0
SPLINE
  5
124
100
AcDbEntity
  8
Layer_1
 62
7
100
AcDbSpline
 70
8
 71
3
 72
8
 73
4
 74
0
 40
0
 40
0
 40
0
 40
0
 40
1
 40
1
 40
1
 40
1
 10
118.615598
 20
118.851648
 30
0.0
 10
121.973707
 20
114.145171
 30
0.0
 10
122.099653
 20
107.879427
 30
0.0
 10
125.391802
 20
103.116511
 30
0.0
  0
SPLINE
  5
125
100
AcDbEntity
  8
Layer_1
 62
7
100
AcDbSpline
 70
8
 71
3
 72
8
 73
4
 74
0
 40
0
 40
0
 40
0
 40
0
 40
1
 40
1
 40
1
 40
1
 10
125.391802
 20
103.116511
 30
0.0
 10
126.872168
 20
100.951130
 30
0.0
 10
129.999289
 20
100.948217
 30
0.0
 10
132.013227
 20
102.331238
 30
0.0
  0
SPLINE
  5
126
100
AcDbEntity
  8
Layer_1
 62
7
100
AcDbSpline
 70
8
 71
3
 72
8
 73
4
 74
0
 40
0
 40
0
 40
0
 40
0
 40
1
 40
1
 40
1
 40
1
 10
132.013227
 20
102.331238
 30
0.0
 10
135.158678
 20
104.555149
 30
0.0
 10
135.603890
 20
108.805085
 30
0.0
 10
135.860667
 20
112.346224
 30
0.0
  0
SPLINE
  5
127
100
AcDbEntity
  8
Layer_1
 62
7
100
AcDbSpline
 70
8
 71
3
 72
8
 73
4
 74
0
 40
0
 40
0
 40
0
 40
0
 40
1
 40
1
 40
1
 40
1
 10
135.860667
 20
112.346224
 30
0.0
 10
136.370196
 20
123.633555
 30
0.0
 10
133.943148
 20
135.155931
 30
0.0
 10
128.451694
 20
145.065542
 30
0.0
  0
SPLINE
  5
128
100
AcDbEntity
  8
Layer_1
 62
7
100
AcDbSpline
 70
8
 71
3
 72
8
 73
4
 74
0
 40
0
 40
0
 40
0
 40
0
 40
1
 40
1
 40
1
 40
1
 10
128.451694
 20
145.065542
 30
0.0
 10
128.388809
 20
145.177578
 30
0.0
 10
128.325446
 20
145.289356
 30
0.0
 10
128.261774
 20
145.400918
 30
0.0
  0
SPLINE
  5
129
100
AcDbEntity
  8
Layer_1
 62
7
100
AcDbSpline
 70
8
 71
3
 72
8
 73
4
 74
0
 40
0
 40
0
 40
0
 40
0
 40
1
 40
1
 40
1
 40
1
 10
128.261774
 20
145.400918
 30
0.0
 10
125.707765
 20
142.682577
 30
0.0
 10
121.674088
 20
142.301342
 30
0.0
 10
119.148174
 20
144.539563
 30
0.0
  0
SPLINE
  5
12a
100
AcDbEntity
  8
Layer_1
 62
7
100
AcDbSpline
 70
8
 71
3
 72
8
 73
4
 74
0
 40
0
 40
0
 40
0
 40
0
 40
1
 40
1
 40
1
 40
1
 10
119.148174
 20
144.539563
 30
0.0
 10
117.575101
 20
145.937135
 30
0.0
 10
116.884481
 20
148.115675
 30
0.0
 10
117.310490
 20
150.336480
 30
0.0
  0
SPLINE
  5
12b
100
AcDbEntity
  8
Layer_1
 62
7
100
AcDbSpline
 70
8
 71
3
 72
8
 73
4
 74
0
 40
0
 40
0
 40
0
 40
0
 40
1
 40
1
 40
1
 40
1
 10
117.310490
 20
150.336480
 30
0.0
 10
113.302257
 20
147.994557
 30
0.0
 10
108.516868
 20
148.307919
 30
0.0
 10
105.337608
 20
151.120501
 30
0.0
  0
SPLINE
  5
12c
100
AcDbEntity
  8
Layer_1
 62
7
100
AcDbSpline
 70
8
 71
3
 72
8
 73
4
 74
0
 40
0
 40
0
 40
0
 40
0
 40
1
 40
1
 40
1
 40
1
 10
105.337608
 20
151.120501
 30
0.0
 10
102.099757
 20
154.001896
 30
0.0
 10
101.256657
 20
158.847320
 30
0.0
 10
103.243020
 20
163.158431
 30
0.0
  0
SPLINE
  5
12d
100
AcDbEntity
  8
Layer_1
 62
7
100
AcDbSpline
 70
8
 71
3
 72
8
 73
4
 74
0
 40
0
 40
0
 40
0
 40
0
 40
1
 40
1
 40
1
 40
1
 10
103.243020
 20
163.158431
 30
0.0
 10
101.015018
 20
162.344511
 30
0.0
 10
98.642738
 20
162.738178
 30
0.0
 10
96.995636
 20
164.195150
 30
0.0
  0
SPLINE
  5
12e
100
AcDbEntity
  8
Layer_1
 62
7
100
AcDbSpline
 70
8
 71
3
 72
8
 73
4
 74
0
 40
0
 40
0
 40
0
 40
0
 40
1
 40
1
 40
1
 40
1
 10
96.995636
 20
164.195150
 30
0.0
 10
95.001793
 20
165.968654
 30
0.0
 10
94.471527
 20
168.945660
 30
0.0
 10
95.675400
 20
171.607191
 30
0.0
  0
SPLINE
  5
12f
100
AcDbEntity
  8
Layer_1
 62
7
100
AcDbSpline
 70
8
 71
3
 72
8
 73
4
 74
0
 40
0
 40
0
 40
0
 40
0
 40
1
 40
1
 40
1
 40
1
 10
95.675400
 20
171.607191
 30
0.0
 10
92.101975
 20
172.746624
 30
0.0
 10
88.414096
 20
173.530515
 30
0.0
 10
84.669754
 20
173.918204
 30
0.0
  0
SPLINE
  5
130
100
AcDbEntity
  8
Layer_1
 62
7
100
AcDbSpline
 70
8
 71
3
 72
8
 73
4
 74
0
 40
0
 40
0
 40
0
 40
0
 40
1
 40
1
 40
1
 40
1
 10
84.669754
 20
173.918204
 30
0.0
 10
82.481163
 20
174.169939
 30
0.0
 10
80.278013
 20
174.293439
 30
0.0
 10
78.075055
 20
174.296228
 30
0.0
  0
LWPOLYLINE
  5
131
100
AcDbEntity
  8
Layer_1
 62
7
100
AcDbPolyline
 90
1
 70
1
 10
78.263384
 20
135.835057
 30
0.0
  0
SPLINE
  5
132
100
AcDbEntity
  8
Layer_1
 62
7
100
AcDbSpline
 70
8
 71
3
 72
8
 73
4
 74
0
 40
0
 40
0
 40
0
 40
0
 40
1
 40
1
 40
1
 40
1
 10
78.027859
 20
173.011949
 30
0.0
 10
77.769341
 20
173.011890
 30
0.0
 10
77.510864
 20
173.010202
 30
0.0
 10
77.252367
 20
173.006592
 30
0.0
  0
SPLINE
  5
133
100
AcDbEntity
  8
Layer_1
 62
7
100
AcDbSpline
 70
8
 71
3
 72
8
 73
4
 74
0
 40
0
 40
0
 40
0
 40
0
 40
1
 40
1
 40
1
 40
1
 10
77.252367
 20
173.006592
 30
0.0
 10
60.758891
 20
172.735608
 30
0.0
 10
44.561748
 20
164.856118
 30
0.0
 10
34.285836
 20
151.929782
 30
0.0
  0
SPLINE
  5
134
100
AcDbEntity
  8
Layer_1
 62
7
100
AcDbSpline
 70
8
 71
3
 72
8
 73
4
 74
0
 40
0
 40
0
 40
0
 40
0
 40
1
 40
1
 40
1
 40
1
 10
34.285836
 20
151.929782
 30
0.0
 10
26.305265
 20
142.039302
 30
0.0
 10
21.896210
 20
129.385061
 30
0.0
 10
21.830875
 20
116.702139
 30
0.0
  0
SPLINE
  5
135
100
AcDbEntity
  8
Layer_1
 62
7
100
AcDbSpline
 70
8
 71
3
 72
8
 73
4
 74
0
 40
0
 40
0
 40
0
 40
0
 40
1
 40
1
 40
1
 40
1
 10
21.830875
 20
116.702139
 30
0.0
 10
21.827644
 20
114.021444
 30
0.0
 10
21.361598
 20
110.081852
 30
0.0
 10
26.649300
 20
110.081852
 30
0.0
  0
SPLINE
  5
136
100
AcDbEntity
  8
Layer_1
 62
7
100
AcDbSpline
 70
8
 71
3
 72
8
 73
4
 74
0
 40
0
 40
0
 40
0
 40
0
 40
1
 40
1
 40
1
 40
1
 10
26.649300
 20
110.081852
 30
0.0
 10
34.496234
 20
110.081852
 30
0.0
 10
29.811516
 20
129.706506
 30
0.0
 10
40.145642
 20
129.706506
 30
0.0
  0
SPLINE
  5
137
100
AcDbEntity
  8
Layer_1
 62
7
100
AcDbSpline
 70
8
 71
3
 72
8
 73
4
 74
0
 40
0
 40
0
 40
0
 40
0
 40
1
 40
1
 40
1
 40
1
 10
40.145642
 20
129.706506
 30
0.0
 10
54.870135
 20
129.706506
 30
0.0
 10
42.647756
 20
108.080743
 30
0.0
 10
53.297738
 20
108.080743
 30
0.0
  0
SPLINE
  5
138
100
AcDbEntity
  8
Layer_1
 62
7
100
AcDbSpline
 70
8
 71
3
 72
8
 73
4
 74
0
 40
0
 40
0
 40
0
 40
0
 40
1
 40
1
 40
1
 40
1
 10
53.297738
 20
108.080743
 30
0.0
 10
58.258061
 20
108.080743
 30
0.0
 10
60.484247
 20
112.498334
 30
0.0
 10
60.469479
 20
116.702139
 30
0.0
  0
SPLINE
  5
139
100
AcDbEntity
  8
Layer_1
 62
7
100
AcDbSpline
 70
8
 71
3
 72
8
 73
4
 74
0
 40
0
 40
0
 40
0
 40
0
 40
1
 40
1
 40
1
 40
1
 10
60.469479
 20
116.702139
 30
0.0
 10
60.470911
 20
120.385955
 30
0.0
 10
61.575028
 20
124.055348
 30
0.0
 10
63.843593
 20
127.025889
 30
0.0
  0
SPLINE
  5
13a
100
AcDbEntity
  8
Layer_1
 62
7
100
AcDbSpline
 70
8
 71
3
 72
8
 73
4
 74
0
 40
0
 40
0
 40
0
 40
0
 40
1
 40
1
 40
1
 40
1
 10
63.843593
 20
127.025889
 30
0.0
 10
67.098720
 20
131.444764
 30
0.0
 10
72.428224
 20
134.380791
 30
0.0
 10
77.958145
 20
134.390849
 30
0.0
  0
SPLINE
  5
13b
100
AcDbEntity
  8
Layer_1
 62
7
100
AcDbSpline
 70
8
 71
3
 72
8
 73
4
 74
0
 40
0
 40
0
 40
0
 40
0
 40
1
 40
1
 40
1
 40
1
 10
77.958145
 20
134.390849
 30
0.0
 10
86.892381
 20
134.720087
 30
0.0
 10
95.273841
 20
127.333315
 30
0.0
 10
95.998493
 20
118.414614
 30
0.0
  0
SPLINE
  5
13c
100
AcDbEntity
  8
Layer_1
 62
7
100
AcDbSpline
 70
8
 71
3
 72
8
 73
4
 74
0
 40
0
 40
0
 40
0
 40
0
 40
1
 40
1
 40
1
 40
1
 10
95.998493
 20
118.414614
 30
0.0
 10
96.060639
 20
117.845581
 30
0.0
 10
96.091396
 20
116.038711
 30
0.0
 10
96.093226
 20
115.466970
 30
0.0
  0
SPLINE
  5
13d
100
AcDbEntity
  8
Layer_1
 62
7
100
AcDbSpline
 70
8
 71
3
 72
8
 73
4
 74
0
 40
0
 40
0
 40
0
 40
0
 40
1
 40
1
 40
1
 40
1
 10
96.093226
 20
115.466970
 30
0.0
 10
96.093226
 20
109.064007
 30
0.0
 10
95.325726
 20
100.658011
 30
0.0
 10
102.119868
 20
100.658011
 30
0.0
  0
SPLINE
  5
13e
100
AcDbEntity
  8
Layer_1
 62
7
100
AcDbSpline
 70
8
 71
3
 72
8
 73
4
 74
0
 40
0
 40
0
 40
0
 40
0
 40
1
 40
1
 40
1
 40
1
 10
102.119868
 20
100.658011
 30
0.0
 10
114.081564
 20
100.658011
 30
0.0
 10
108.501477
 20
122.367499
 30
0.0
 10
115.378636
 20
122.112504
 30
0.0
  0
SPLINE
  5
13f
100
AcDbEntity
  8
Layer_1
 62
7
100
AcDbSpline
 70
8
 71
3
 72
8
 73
4
 74
0
 40
0
 40
0
 40
0
 40
0
 40
1
 40
1
 40
1
 40
1
 10
115.378636
 20
122.112504
 30
0.0
 10
123.571517
 20
121.808723
 30
0.0
 10
123.037596
 20
102.653320
 30
0.0
 10
128.637294
 20
102.653320
 30
0.0
  0
SPLINE
  5
140
100
AcDbEntity
  8
Layer_1
 62
7
100
AcDbSpline
 70
8
 71
3
 72
8
 73
4
 74
0
 40
0
 40
0
 40
0
 40
0
 40
1
 40
1
 40
1
 40
1
 10
128.637294
 20
102.653320
 30
0.0
 10
133.556786
 20
102.653320
 30
0.0
 10
134.663938
 20
108.348932
 30
0.0
 10
134.663938
 20
115.466970
 30
0.0
  0
SPLINE
  5
141
100
AcDbEntity
  8
Layer_1
 62
7
100
AcDbSpline
 70
8
 71
3
 72
8
 73
4
 74
0
 40
0
 40
0
 40
0
 40
0
 40
1
 40
1
 40
1
 40
1
 10
134.663938
 20
115.466970
 30
0.0
 10
134.630498
 20
125.122025
 30
0.0
 10
132.156524
 20
135.951873
 30
0.0
 10
127.348333
 20
144.399466
 30
0.0
  0
SPLINE
  5
142
100
AcDbEntity
  8
Layer_1
 62
7
100
AcDbSpline
 70
8
 71
3
 72
8
 73
4
 74
0
 40
0
 40
0
 40
0
 40
0
 40
1
 40
1
 40
1
 40
1
 10
127.348333
 20
144.399466
 30
0.0
 10
124.568687
 20
141.676076
 30
0.0
 10
120.563045
 20
141.238868
 30
0.0
 10
118.131356
 20
143.393452
 30
0.0
  0
SPLINE
  5
143
100
AcDbEntity
  8
Layer_1
 62
7
100
AcDbSpline
 70
8
 71
3
 72
8
 73
4
 74
0
 40
0
 40
0
 40
0
 40
0
 40
1
 40
1
 40
1
 40
1
 10
118.131356
 20
143.393452
 30
0.0
 10
116.558314
 20
144.791100
 30
0.0
 10
115.933595
 20
147.043970
 30
0.0
 10
116.469036
 20
149.388137
 30
0.0
  0
SPLINE
  5
144
100
AcDbEntity
  8
Layer_1
 62
7
100
AcDbSpline
 70
8
 71
3
 72
8
 73
4
 74
0
 40
0
 40
0
 40
0
 40
0
 40
1
 40
1
 40
1
 40
1
 10
116.469036
 20
149.388137
 30
0.0
 10
112.212441
 20
146.766299
 30
0.0
 10
107.261466
 20
146.893026
 30
0.0
 10
104.081855
 20
149.705202
 30
0.0
  0
SPLINE
  5
145
100
AcDbEntity
  8
Layer_1
 62
7
100
AcDbSpline
 70
8
 71
3
 72
8
 73
4
 74
0
 40
0
 40
0
 40
0
 40
0
 40
1
 40
1
 40
1
 40
1
 10
104.081855
 20
149.705202
 30
0.0
 10
100.844302
 20
152.586969
 30
0.0
 10
100.173683
 20
157.626858
 30
0.0
 10
102.415779
 20
162.226237
 30
0.0
  0
SPLINE
  5
146
100
AcDbEntity
  8
Layer_1
 62
7
100
AcDbSpline
 70
8
 71
3
 72
8
 73
4
 74
0
 40
0
 40
0
 40
0
 40
0
 40
1
 40
1
 40
1
 40
1
 10
102.415779
 20
162.226237
 30
0.0
 10
100.070275
 20
161.279915
 30
0.0
 10
97.625971
 20
161.592395
 30
0.0
 10
95.978705
 20
163.049153
 30
0.0
  0
SPLINE
  5
147
100
AcDbEntity
  8
Layer_1
 62
7
100
AcDbSpline
 70
8
 71
3
 72
8
 73
4
 74
0
 40
0
 40
0
 40
0
 40
0
 40
1
 40
1
 40
1
 40
1
 10
95.978705
 20
163.049153
 30
0.0
 10
94.045530
 20
164.769420
 30
0.0
 10
93.582220
 20
167.740450
 30
0.0
 10
94.813363
 20
170.522038
 30
0.0
  0
SPLINE
  5
148
100
AcDbEntity
  8
Layer_1
 62
7
100
AcDbSpline
 70
8
 71
3
 72
8
 73
4
 74
0
 40
0
 40
0
 40
0
 40
0
 40
1
 40
1
 40
1
 40
1
 10
94.813363
 20
170.522038
 30
0.0
 10
93.094456
 20
171.047242
 30
0.0
 10
91.348604
 20
171.488122
 30
0.0
 10
89.581547
 20
171.837841
 30
0.0
  0
SPLINE
  5
149
100
AcDbEntity
  8
Layer_1
 62
7
100
AcDbSpline
 70
8
 71
3
 72
8
 73
4
 74
0
 40
0
 40
0
 40
0
 40
0
 40
1
 40
1
 40
1
 40
1
 10
89.581547
 20
171.837841
 30
0.0
 10
85.783133
 20
172.618309
 30
0.0
 10
81.905627
 20
173.012805
 30
0.0
 10
78.027859
 20
173.011937
 30
0.0
  0
LWPOLYLINE
  5
14a
100
AcDbEntity
  8
Layer_1
 62
7
100
AcDbPolyline
 90
1
 70
1
 10
78.075055
 20
174.296228
 30
0.0
  0
SPLINE
  5
14b
100
AcDbEntity
  8
Layer_1
 62
7
100
AcDbSpline
 70
8
 71
3
 72
8
 73
4
 74
0
 40
0
 40
0
 40
0
 40
0
 40
1
 40
1
 40
1
 40
1
 10
40.408347
 20
128.443599
 30
0.0
 10
39.395396
 20
128.450637
 30
0.0
 10
38.397991
 20
128.255930
 30
0.0
 10
37.557938
 20
127.756130
 30
0.0
  0
SPLINE
  5
14c
100
AcDbEntity
  8
Layer_1
 62
7
100
AcDbSpline
 70
8
 71
3
 72
8
 73
4
 74
0
 40
0
 40
0
 40
0
 40
0
 40
1
 40
1
 40
1
 40
1
 10
37.557938
 20
127.756130
 30
0.0
 10
37.434198
 20
127.283682
 30
0.0
 10
37.319221
 20
126.808402
 30
0.0
 10
37.214374
 20
126.330243
 30
0.0
  0
SPLINE
  5
14d
100
AcDbEntity
  8
Layer_1
 62
7
100
AcDbSpline
 70
8
 71
3
 72
8
 73
4
 74
0
 40
0
 40
0
 40
0
 40
0
 40
1
 40
1
 40
1
 40
1
 10
37.214374
 20
126.330243
 30
0.0
 10
32.871269
 20
108.483970
 30
0.0
 10
41.675165
 20
88.023123
 30
0.0
 10
58.127649
 20
79.535379
 30
0.0
  0
SPLINE
  5
14e
100
AcDbEntity
  8
Layer_1
 62
7
100
AcDbSpline
 70
8
 71
3
 72
8
 73
4
 74
0
 40
0
 40
0
 40
0
 40
0
 40
1
 40
1
 40
1
 40
1
 10
58.127649
 20
79.535379
 30
0.0
 10
72.155974
 20
71.944337
 30
0.0
 10
90.680065
 20
72.866107
 30
0.0
 10
103.412130
 20
82.740156
 30
0.0
  0
SPLINE
  5
14f
100
AcDbEntity
  8
Layer_1
 62
7
100
AcDbSpline
 70
8
 71
3
 72
8
 73
4
 74
0
 40
0
 40
0
 40
0
 40
0
 40
1
 40
1
 40
1
 40
1
 10
103.412130
 20
82.740156
 30
0.0
 10
113.623426
 20
90.342487
 30
0.0
 10
120.074751
 20
102.793041
 30
0.0
 10
120.473981
 20
115.447307
 30
0.0
  0
SPLINE
  5
150
100
AcDbEntity
  8
Layer_1
 62
7
100
AcDbSpline
 70
8
 71
3
 72
8
 73
4
 74
0
 40
0
 40
0
 40
0
 40
0
 40
1
 40
1
 40
1
 40
1
 10
120.473981
 20
115.447307
 30
0.0
 10
119.970524
 20
116.638255
 30
0.0
 10
119.376524
 20
117.785217
 30
0.0
 10
118.615598
 20
118.851671
 30
0.0
  0
SPLINE
  5
151
100
AcDbEntity
  8
Layer_1
 62
7
100
AcDbSpline
 70
8
 71
3
 72
8
 73
4
 74
0
 40
0
 40
0
 40
0
 40
0
 40
1
 40
1
 40
1
 40
1
 10
118.615598
 20
118.851671
 30
0.0
 10
117.758259
 20
120.090580
 30
0.0
 10
115.900958
 20
121.436033
 30
0.0
 10
114.404126
 20
120.523774
 30
0.0
  0
SPLINE
  5
152
100
AcDbEntity
  8
Layer_1
 62
7
100
AcDbSpline
 70
8
 71
3
 72
8
 73
4
 74
0
 40
0
 40
0
 40
0
 40
0
 40
1
 40
1
 40
1
 40
1
 10
114.404126
 20
120.523774
 30
0.0
 10
112.686181
 20
118.364406
 30
0.0
 10
112.761499
 20
115.395347
 30
0.0
 10
112.182393
 20
112.820254
 30
0.0
  0
SPLINE
  5
153
100
AcDbEntity
  8
Layer_1
 62
7
100
AcDbSpline
 70
8
 71
3
 72
8
 73
4
 74
0
 40
0
 40
0
 40
0
 40
0
 40
1
 40
1
 40
1
 40
1
 10
112.182393
 20
112.820254
 30
0.0
 10
111.436402
 20
108.524917
 30
0.0
 10
110.722954
 20
103.456371
 30
0.0
 10
106.876539
 20
100.745704
 30
0.0
  0
SPLINE
  5
154
100
AcDbEntity
  8
Layer_1
 62
7
100
AcDbSpline
 70
8
 71
3
 72
8
 73
4
 74
0
 40
0
 40
0
 40
0
 40
0
 40
1
 40
1
 40
1
 40
1
 10
106.876539
 20
100.745704
 30
0.0
 10
106.541138
 20
100.518024
 30
0.0
 10
106.182685
 20
100.317190
 30
0.0
 10
105.807864
 20
100.143757
 30
0.0
  0
SPLINE
  5
155
100
AcDbEntity
  8
Layer_1
 62
7
100
AcDbSpline
 70
8
 71
3
 72
8
 73
4
 74
0
 40
0
 40
0
 40
0
 40
0
 40
1
 40
1
 40
1
 40
1
 10
105.807864
 20
100.143757
 30
0.0
 10
100.244468
 20
91.091358
 30
0.0
 10
90.354648
 20
84.594298
 30
0.0
 10
79.597949
 20
84.373137
 30
0.0
  0
SPLINE
  5
156
100
AcDbEntity
  8
Layer_1
 62
7
100
AcDbSpline
 70
8
 71
3
 72
8
 73
4
 74
0
 40
0
 40
0
 40
0
 40
0
 40
1
 40
1
 40
1
 40
1
 10
79.597949
 20
84.373137
 30
0.0
 10
64.067219
 20
83.602276
 30
0.0
 10
48.864314
 20
95.627989
 30
0.0
 10
46.500495
 20
111.085148
 30
0.0
  0
SPLINE
  5
157
100
AcDbEntity
  8
Layer_1
 62
7
100
AcDbSpline
 70
8
 71
3
 72
8
 73
4
 74
0
 40
0
 40
0
 40
0
 40
0
 40
1
 40
1
 40
1
 40
1
 10
46.500495
 20
111.085148
 30
0.0
 10
45.811012
 20
114.929654
 30
0.0
 10
45.917364
 20
118.866256
 30
0.0
 10
46.704063
 20
122.671816
 30
0.0
  0
SPLINE
  5
158
100
AcDbEntity
  8
Layer_1
 62
7
100
AcDbSpline
 70
8
 71
3
 72
8
 73
4
 74
0
 40
0
 40
0
 40
0
 40
0
 40
1
 40
1
 40
1
 40
1
 10
46.704063
 20
122.671816
 30
0.0
 10
46.380077
 20
124.832568
 30
0.0
 10
45.574068
 20
127.005421
 30
0.0
 10
43.467442
 20
127.881114
 30
0.0
  0
SPLINE
  5
159
100
AcDbEntity
  8
Layer_1
 62
7
100
AcDbSpline
 70
8
 71
3
 72
8
 73
4
 74
0
 40
0
 40
0
 40
0
 40
0
 40
1
 40
1
 40
1
 40
1
 10
43.467442
 20
127.881114
 30
0.0
 10
42.538332
 20
128.209533
 30
0.0
 10
41.464930
 20
128.436259
 30
0.0
 10
40.408347
 20
128.443599
 30
0.0
  0
LWPOLYLINE
  5
15a
100
AcDbEntity
  8
Layer_1
 62
7
100
AcDbPolyline
 90
1
 70
1
 10
78.027859
 20
173.011937
 30
0.0
  0
SPLINE
  5
15b
100
AcDbEntity
  8
Layer_1
 62
7
100
AcDbSpline
 70
8
 71
3
 72
8
 73
4
 74
0
 40
0
 40
0
 40
0
 40
0
 40
1
 40
1
 40
1
 40
1
 10
78.372788
 20
158.713731
 30
0.0
 10
78.214350
 20
158.713382
 30
0.0
 10
78.055909
 20
158.711967
 30
0.0
 10
77.897530
 20
158.709638
 30
0.0
  0
SPLINE
  5
15c
100
AcDbEntity
  8
Layer_1
 62
7
100
AcDbSpline
 70
8
 71
3
 72
8
 73
4
 74
0
 40
0
 40
0
 40
0
 40
0
 40
1
 40
1
 40
1
 40
1
 10
77.897530
 20
158.709638
 30
0.0
 10
60.805535
 20
158.826818
 30
0.0
 10
44.327495
 20
146.950759
 30
0.0
 10
38.554967
 20
130.963069
 30
0.0
  0
SPLINE
  5
15d
100
AcDbEntity
  8
Layer_1
 62
7
100
AcDbSpline
 70
8
 71
3
 72
8
 73
4
 74
0
 40
0
 40
0
 40
0
 40
0
 40
1
 40
1
 40
1
 40
1
 10
38.554967
 20
130.963069
 30
0.0
 10
41.753385
 20
131.612543
 30
0.0
 10
45.449636
 20
130.700094
 30
0.0
 10
47.482057
 20
128.066828
 30
0.0
  0
SPLINE
  5
15e
100
AcDbEntity
  8
Layer_1
 62
7
100
AcDbSpline
 70
8
 71
3
 72
8
 73
4
 74
0
 40
0
 40
0
 40
0
 40
0
 40
1
 40
1
 40
1
 40
1
 10
47.482057
 20
128.066828
 30
0.0
 10
47.671872
 20
127.804174
 30
0.0
 10
47.844948
 20
127.535902
 30
0.0
 10
48.003601
 20
127.262904
 30
0.0
  0
SPLINE
  5
15f
100
AcDbEntity
  8
Layer_1
 62
7
100
AcDbSpline
 70
8
 71
3
 72
8
 73
4
 74
0
 40
0
 40
0
 40
0
 40
0
 40
1
 40
1
 40
1
 40
1
 10
48.003601
 20
127.262904
 30
0.0
 10
51.221511
 20
136.155941
 30
0.0
 10
58.179635
 20
143.735102
 30
0.0
 10
67.232719
 20
146.797374
 30
0.0
  0
SPLINE
  5
160
100
AcDbEntity
  8
Layer_1
 62
7
100
AcDbSpline
 70
8
 71
3
 72
8
 73
4
 74
0
 40
0
 40
0
 40
0
 40
0
 40
1
 40
1
 40
1
 40
1
 10
67.232719
 20
146.797374
 30
0.0
 10
70.975479
 20
148.139832
 30
0.0
 10
74.956452
 20
148.795279
 30
0.0
 10
78.930383
 20
148.782334
 30
0.0
  0
SPLINE
  5
161
100
AcDbEntity
  8
Layer_1
 62
7
100
AcDbSpline
 70
8
 71
3
 72
8
 73
4
 74
0
 40
0
 40
0
 40
0
 40
0
 40
1
 40
1
 40
1
 40
1
 10
78.930383
 20
148.782334
 30
0.0
 10
95.105144
 20
148.770394
 30
0.0
 10
109.656049
 20
134.526381
 30
0.0
 10
110.472420
 20
118.494575
 30
0.0
  0
SPLINE
  5
162
100
AcDbEntity
  8
Layer_1
 62
7
100
AcDbSpline
 70
8
 71
3
 72
8
 73
4
 74
0
 40
0
 40
0
 40
0
 40
0
 40
1
 40
1
 40
1
 40
1
 10
110.472420
 20
118.494575
 30
0.0
 10
110.991044
 20
120.456507
 30
0.0
 10
111.873561
 20
122.461172
 30
0.0
 10
113.802749
 20
123.266941
 30
0.0
  0
SPLINE
  5
163
100
AcDbEntity
  8
Layer_1
 62
7
100
AcDbSpline
 70
8
 71
3
 72
8
 73
4
 74
0
 40
0
 40
0
 40
0
 40
0
 40
1
 40
1
 40
1
 40
1
 10
113.802749
 20
123.266941
 30
0.0
 10
116.151860
 20
124.099092
 30
0.0
 10
118.611941
 20
122.963022
 30
0.0
 10
120.232087
 20
121.185086
 30
0.0
  0
SPLINE
  5
164
100
AcDbEntity
  8
Layer_1
 62
7
100
AcDbSpline
 70
8
 71
3
 72
8
 73
4
 74
0
 40
0
 40
0
 40
0
 40
0
 40
1
 40
1
 40
1
 40
1
 10
120.232087
 20
121.185086
 30
0.0
 10
120.050534
 20
122.728386
 30
0.0
 10
119.773460
 20
124.264284
 30
0.0
 10
119.395983
 20
125.784135
 30
0.0
  0
SPLINE
  5
165
100
AcDbEntity
  8
Layer_1
 62
7
100
AcDbSpline
 70
8
 71
3
 72
8
 73
4
 74
0
 40
0
 40
0
 40
0
 40
0
 40
1
 40
1
 40
1
 40
1
 10
119.395983
 20
125.784135
 30
0.0
 10
117.640307
 20
133.480690
 30
0.0
 10
113.638763
 20
140.674192
 30
0.0
 10
108.094876
 20
146.308811
 30
0.0
  0
SPLINE
  5
166
100
AcDbEntity
  8
Layer_1
 62
7
100
AcDbSpline
 70
8
 71
3
 72
8
 73
4
 74
0
 40
0
 40
0
 40
0
 40
0
 40
1
 40
1
 40
1
 40
1
 10
108.094876
 20
146.308811
 30
0.0
 10
106.079563
 20
146.419086
 30
0.0
 10
104.275316
 20
147.125886
 30
0.0
 10
102.880689
 20
148.351429
 30
0.0
  0
SPLINE
  5
167
100
AcDbEntity
  8
Layer_1
 62
7
100
AcDbSpline
 70
8
 71
3
 72
8
 73
4
 74
0
 40
0
 40
0
 40
0
 40
0
 40
1
 40
1
 40
1
 40
1
 10
102.880689
 20
148.351429
 30
0.0
 10
101.694202
 20
149.413423
 30
0.0
 10
100.847807
 20
150.822744
 30
0.0
 10
100.410691
 20
152.464189
 30
0.0
  0
SPLINE
  5
168
100
AcDbEntity
  8
Layer_1
 62
7
100
AcDbSpline
 70
8
 71
3
 72
8
 73
4
 74
0
 40
0
 40
0
 40
0
 40
0
 40
1
 40
1
 40
1
 40
1
 10
100.410691
 20
152.464189
 30
0.0
 10
98.031623
 20
153.936623
 30
0.0
 10
95.495805
 20
155.158222
 30
0.0
 10
92.833634
 20
156.080424
 30
0.0
  0
SPLINE
  5
169
100
AcDbEntity
  8
Layer_1
 62
7
100
AcDbSpline
 70
8
 71
3
 72
8
 73
4
 74
0
 40
0
 40
0
 40
0
 40
0
 40
1
 40
1
 40
1
 40
1
 10
92.833634
 20
156.080424
 30
0.0
 10
88.218335
 20
157.796691
 30
0.0
 10
83.284354
 20
158.725216
 30
0.0
 10
78.372788
 20
158.713732
 30
0.0
  0
LWPOLYLINE
  5
16a
100
AcDbEntity
  8
Layer_1
 62
7
100
AcDbPolyline
 90
1
 70
1
 10
40.408347
 20
128.443599
 30
0.0
  0
LWPOLYLINE
  5
16b
100
AcDbEntity
  8
Layer_1
 62
7
100
AcDbPolyline
 90
1
 70
1
 10
78.372788
 20
158.713732
 30
0.0
  0
LWPOLYLINE
  5
16c
100
AcDbEntity
  8
Layer_1
 62
7
100
AcDbPolyline
 90
4
 70
1
 10
46.972006
 20
141.576484
 30
0.0
 10
53.423409
 20
149.836053
 30
0.0
 10
55.975722
 20
147.842486
 30
0.0
 10
49.524319
 20
139.582918
 30
0.0
  0
LWPOLYLINE
  5
16d
100
AcDbEntity
  8
Layer_1
 62
7
100
AcDbPolyline
 90
4
 70
1
 10
41.719713
 20
154.707310
 30
0.0
 10
50.716042
 20
160.083845
 30
0.0
 10
52.377461
 20
157.303863
 30
0.0
 10
43.381132
 20
151.927328
 30
0.0
  0
LWPOLYLINE
  5
16e
100
AcDbEntity
  8
Layer_1
 62
7
100
AcDbPolyline
 90
4
 70
1
 10
51.385449
 20
131.998655
 30
0.0
 10
60.381778
 20
137.375190
 30
0.0
 10
62.043197
 20
134.595208
 30
0.0
 10
53.046868
 20
129.218673
 30
0.0
  0
LWPOLYLINE
  5
16f
100
AcDbEntity
  8
Layer_1
 62
7
100
AcDbPolyline
 90
4
 70
1
 10
75.608014
 20
164.489496
 30
0.0
 10
84.604342
 20
169.866032
 30
0.0
 10
86.265761
 20
167.086050
 30
0.0
 10
77.269432
 20
161.709514
 30
0.0
  0
LWPOLYLINE
  5
170
100
AcDbEntity
  8
Layer_1
 62
7
100
AcDbPolyline
 90
4
 70
1
 10
76.539655
 20
139.568208
 30
0.0
 10
85.535984
 20
144.944743
 30
0.0
 10
87.197403
 20
142.164761
 30
0.0
 10
78.201074
 20
136.788226
 30
0.0
  0
LWPOLYLINE
  5
171
100
AcDbEntity
  8
Layer_1
 62
7
100
AcDbPolyline
 90
8
 70
1
 10
92.261032
 20
134.444204
 30
0.0
 10
101.257361
 20
139.820739
 30
0.0
 10
102.918780
 20
137.040757
 30
0.0
 10
93.922451
 20
131.664222
 30
0.0
 10
92.261032
 20
134.444204
 30
0.0
 10
101.257361
 20
139.820739
 30
0.0
 10
102.918780
 20
137.040757
 30
0.0
 10
93.922451
 20
131.664222
 30
0.0
  0
LWPOLYLINE
  5
172
100
AcDbEntity
  8
Layer_1
 62
7
100
AcDbPolyline
 90
4
 70
1
 10
100.878673
 20
112.550730
 30
0.0
 10
109.875002
 20
117.927265
 30
0.0
 10
111.536421
 20
115.147283
 30
0.0
 10
102.540092
 20
109.770748
 30
0.0
  0
LWPOLYLINE
  5
173
100
AcDbEntity
  8
Layer_1
 62
7
100
AcDbPolyline
 90
4
 70
1
 10
118.463324
 20
129.087288
 30
0.0
 10
127.459653
 20
134.463823
 30
0.0
 10
129.121072
 20
131.683842
 30
0.0
 10
120.124743
 20
126.307306
 30
0.0
  0
LWPOLYLINE
  5
174
100
AcDbEntity
  8
Layer_1
 62
7
100
AcDbPolyline
 90
4
 70
1
 10
69.422614
 20
157.461127
 30
0.0
 10
61.125839
 20
163.864609
 30
0.0
 10
63.104597
 20
166.428419
 30
0.0
 10
71.401373
 20
160.024938
 30
0.0
  0
LWPOLYLINE
  5
175
100
AcDbEntity
  8
Layer_1
 62
7
100
AcDbPolyline
 90
4
 70
1
 10
72.566892
 20
144.884028
 30
0.0
 10
64.270116
 20
151.287510
 30
0.0
 10
66.248875
 20
153.851321
 30
0.0
 10
74.545650
 20
147.447839
 30
0.0
  0
LWPOLYLINE
  5
176
100
AcDbEntity
  8
Layer_1
 62
7
100
AcDbPolyline
 90
4
 70
1
 10
38.554967
 20
130.963068
 30
0.0
 10
30.258192
 20
137.366550
 30
0.0
 10
32.236950
 20
139.930361
 30
0.0
 10
40.533726
 20
133.526879
 30
0.0
  0
LWPOLYLINE
  5
177
100
AcDbEntity
  8
Layer_1
 62
7
100
AcDbPolyline
 90
4
 70
1
 10
95.974276
 20
146.281485
 30
0.0
 10
87.677500
 20
152.684967
 30
0.0
 10
89.656258
 20
155.248778
 30
0.0
 10
97.953034
 20
148.845296
 30
0.0
  0
LWPOLYLINE
  5
178
100
AcDbEntity
  8
Layer_1
 62
7
100
AcDbPolyline
 90
4
 70
1
 10
115.189287
 20
130.793015
 30
0.0
 10
106.892512
 20
137.196497
 30
0.0
 10
108.871270
 20
139.760308
 30
0.0
 10
117.168046
 20
133.356826
 30
0.0
  0
LWPOLYLINE
  5
179
100
AcDbEntity
  8
Layer_1
 62
7
100
AcDbPolyline
 90
4
 70
1
 10
107.619738
 20
119.147551
 30
0.0
 10
99.322962
 20
125.551032
 30
0.0
 10
101.301720
 20
128.114843
 30
0.0
 10
109.598496
 20
121.711362
 30
0.0
  0
LWPOLYLINE
  5
17a
100
AcDbEntity
  8
Layer_1
 62
7
100
AcDbPolyline
 90
8
 70
1
 10
131.725850
 20
115.188094
 30
0.0
 10
123.429074
 20
121.591576
 30
0.0
 10
125.407833
 20
124.155387
 30
0.0
 10
133.704609
 20
117.751905
 30
0.0
 10
131.725850
 20
115.188094
 30
0.0
 10
123.429074
 20
121.591576
 30
0.0
 10
125.407833
 20
124.155387
 30
0.0
 10
133.704609
 20
117.751905
 30
0.0
  0
ENDSEC
  0
SECTION
  2
OBJECTS
  0
DICTIONARY
  5
C
330
0
100
AcDbDictionary
  3
ACAD_GROUP
350
D
  3
ACAD_MLINESTYLE
350
17
  0
DICTIONARY
  5
D
330
C
100
AcDbDictionary
  0
DICTIONARY
  5
1A
330
C
100
AcDbDictionary
  0
DICTIONARY
  5
17
330
C
100
AcDbDictionary
  3
STANDARD
350
18
  0
DICTIONARY
  5
19
330
C
100
AcDbDictionary
  0
ENDSEC
  0
EOF
